<svg id="Layer_1" data-name="Layer 1" xmlns="http://www.w3.org/2000/svg" viewBox="0 0 288.05 255.11"><defs><style>.cls-1{fill:#ef2e4f;}.cls-2{fill:#197caa;}.cls-3{fill:#bc4db9;}</style></defs><title>same-same</title><path class="cls-1" d="M97.65,103.27c.41.46.68.82,1,1.27l2.82,4.05c.68.91,1.14,1.78,1.78,2.78,8,12.57,11.61,28.46,11.79,43.26A116.36,116.36,0,0,1,114,171c-.41,3-1.59,10.2-2.32,13.3a39.14,39.14,0,0,0-1,4.19c2,.5,10.79,2.78,12.2,2.6,6.83-23.63,6.65-47.31-.41-67.26A109,109,0,0,0,113.4,104l-2.87-4.6c-.18-.32-.27-.5-.46-.77s-.32-.36-.5-.64c-2-3.14-4.6-6.47-7-9.47l-1.18-1.41a8.14,8.14,0,0,1-.59-.64c-.73-.91-5.19-6.33-6.24-6.65a4.23,4.23,0,0,0-5,2.32,15.65,15.65,0,0,0,1.23,1.23A107.29,107.29,0,0,1,98.74,92l4,5.37a124.09,124.09,0,0,1,6.78,11.43c1,2,2,3.87,2.91,6,3,6.51,7.79,18.76,8.74,25.82,1.37,9.88.46,21.86-.68,31.92-.32,2.82-.68,5.69-1.09,8.52-.23,1.59-1,7.65-1.41,8.74l-2.14-.32c2.41-14.25,5.87-39.25,2.19-53.23-1-3.82-3.37-10.29-4.87-14.07-3.82-9.56-10.06-21.49-16-28.55l-2.32-2.87c-1.32-1.5-9.11-10.11-10.79-10.2a11.85,11.85,0,0,0-4.05.82,3.25,3.25,0,0,0-2,3.19,1.81,1.81,0,0,0,.59.59,103.66,103.66,0,0,1,10,8.24c5.1,4.83,5.24,5.37,9.06,9.84Zm8.24,40.53c.59,2.32,4.51,7.83,6.88,9.24.09-1.5-.41-9-.82-10a56.5,56.5,0,0,0-6.06.77ZM59.95,159.73c1,1.46,12.39,10.93,14.8,12a8.78,8.78,0,0,0-1.23-1.87c-2.14-3.37-3.69-5.83-5.69-9.43l-2.14-3.87a25.81,25.81,0,0,0-3,1.5,18.57,18.57,0,0,0-2.78,1.64Zm49,72.13c.64,1.14,11.34,8.42,12,8.88,2.23,1.41,4.28,2.64,6.74,3.92a17.69,17.69,0,0,0,3.78,1.68c2.23.41,2.46-1.41,2.19-2.5a59.15,59.15,0,0,1-12.93-5.92,34.55,34.55,0,0,1-5.05-3.92c-1.68-1.64-1.23-1.68-2.73-1.78C111.58,232.13,110.22,232,108.9,231.86Zm22.49.91c3.14,1.37,13.25,7.6,17,4.69,1.23-1,1.37-4.1.73-5.28-1.37,0-3,.14-4.37.18l-13.3.46Zm-119.12-70c-2.41,4.6-2.37,11.61-1.73,16.21.41,3,2.41,11.11,3.87,13.43,0-1.14-.14-2.64-.14-3.82a107.58,107.58,0,0,1,1-16.21c.27-2.09.64-2.55,0-3.78l-2.87-5.83Zm85.52-17.39c.14.77,2.46,4,3,4.83,1,1.55,2.28,3.23,3.46,4.64,1.82,2.14,5.78,6.88,8.11,8.38a24.4,24.4,0,0,0,.27-3.73c0-.64,0-1.27,0-1.91,0-2.82.27-1.09-3.1-4.23-4.05-3.73-5.56-8.38-6.19-9.06l-5.6,1Zm20.08,87.25a.46.46,0,0,1,0,.14c0,.68-.18-.18.09.23l2.28,1.82c.87.64,1.87,1.27,2.82,1.87,4.1,2.46,18.58,9.84,20.72,3.55-5.05-1-11.2-4.23-15.53-6.69-1.55-.91-1.23-.68-3.14-.73l-7.19-.23ZM72.56,143.52,77,141.88c8.38-3.05,19.31-5.56,28.23-7.19a35,35,0,0,0,5-1L108.94,129a37.26,37.26,0,0,0-5,1.14,114.43,114.43,0,0,0-23.13,8.61L76.66,141a31.61,31.61,0,0,0-4.1,2.55Zm8.83,81.69c.46,1.78,5.78,7.06,7.65,8.83,2.73,2.64,6,5.28,9.15,7.83,2.23,1.78,12.43,9.7,14.94,11,2.73,1.37,4.55,1,5.87-1-.41-.55-20.22-12.39-29-22.68-1.23-1.46-.55-1.32-2.14-1.78-2.19-.68-4.37-1.55-6.47-2.19Zm7.83-77.73c.14,1,3.69,6.1,4.42,7.1a89.89,89.89,0,0,0,14.25,15.53,33,33,0,0,0,3.42,2.82,53,53,0,0,0,.91-6.78,53.6,53.6,0,0,1-5-4.46,64.55,64.55,0,0,1-4.46-5c-1-1.41-3-3.73-3.92-5.19L95.24,146l-6,1.5ZM31.44,228.26c-2-3.78-3.55-7.15-5.19-11.16C22,206.82,19,194.93,20.51,183.55c.87-6.33,1.68-3-1.14-7.56l-1.87-2.91c-.55,1.73-.77,6.92-.87,8.92-.32,6.74-.14,13.07,2,19.44.32,1,.5,2.55.73,3.64,1.5,7.15,5.28,21.63,12.89,24.82a11,11,0,0,0-.82-1.64ZM172.1,186.51c.64-.32,1.59-.64,2.32-1,3.28-1.41,2.64-1,3.6-3.64A68,68,0,0,0,181.94,166a44.65,44.65,0,0,0,0-12.07c-.5-3.32-2-7.7-4.19-9.29-.14,1.27,0,3.32,0,4.74a118,118,0,0,1-1.18,15.44c-.5,3.73-1.18,7.47-2,11.16-.41,1.82-.82,3.64-1.27,5.46-.36,1.46-1.14,3.73-1.32,5.15ZM68,155.41a36.18,36.18,0,0,0,2.23,4.37,103.76,103.76,0,0,0,7.65,12.07c.5.68,1,1.27,1.5,2a12.25,12.25,0,0,0,1.5,1.87c1.55,1.46,12.7,6.78,14.71,7.51-.32-.5-1.09-1.23-1.59-1.82-4.83-5.37-7.7-9-12.07-14.57l-4.23-5.65c-1-1.27-1.82-2.46-2.78-3.78s-1.78-2.55-2.78-3.78a42.36,42.36,0,0,0-4.23,1.82Zm-14.25-2c.41.32.64.77,1,1l5.74-4.69c1-.68,3.1-2.55,4.28-3.51L69.28,143c6.15-4.55,16.17-9.11,23.59-11.79,2.09-.77,12.89-4.14,15.25-4.28l-1-3c-1.64.23-6.19,1.5-8,2a117,117,0,0,0-21.95,8.29L73.83,136a68.18,68.18,0,0,0-9.43,6.33c-2.46,1.91-9.61,8.61-10.61,11.11Zm27.14-3.23c.41,1.23,4.64,7.1,5.69,8.42a88,88,0,0,0,18.85,18.12,39.21,39.21,0,0,0,4.64,3.1l.82-4.14c-3.82-2.5-10.79-9.61-13.66-12.75a72,72,0,0,1-5.69-7.1l-3.69-5.69a15.25,15.25,0,0,0-1.18-1.91c-1.37.5-4.78,1.32-5.74,2Zm11.88,78.55c.73,1.37,6,5.87,7.83,7.29a210.73,210.73,0,0,0,18.21,12.89c1.78,1.14,3.23,2.28,6,2.37,2.23,0,3.46-1.27,3.87-3.55-5.15-2.19-12.11-7.06-16.57-10.34-2.5-1.82-5.1-3.87-7.33-5.83-.55-.46-.36-.41-1.14-.55l-1.59-.27c-3.6-.59-6.33-1.46-9.15-2ZM74.56,152.54a12.36,12.36,0,0,0,1.73,2.5c5.33,7.56,14.34,19.35,20.54,25.77,1.46,1.5,2.78,2.87,4.37,4.23,1,.87,5.51,2.37,7,2.6a38.46,38.46,0,0,0,1.37-5.37,57.84,57.84,0,0,1-5-3.23,94.11,94.11,0,0,1-12.89-11,79.07,79.07,0,0,1-7.15-8.24c-1.82-2.73-4.6-5.87-6-8.83A16,16,0,0,0,74.56,152.54ZM34,115.47l4.69-4.74a86.68,86.68,0,0,1,10.2-8.24c1-.68,1.82-1.09,2.78-1.78C54.89,98.44,63,94.8,66.78,93.34c2.09-.82,4.28-1.5,6.51-2.19,1.09-.32,2.23-.64,3.37-.91l2.64-.64c.14,0,.27,0,.41-.09l.5-.27c-.87-.5-2.09-1.55-3-2.23s-.77-.59-1.87-.36c-8.52,1.78-15.8,3.6-23.31,7.88-6.47,3.69-11.88,7.83-16.48,14-2.64,3.55-2.46,2.64-1.5,7Zm6.47,18.12c9.79-11.79,21.77-21.77,36.16-28.23A76.19,76.19,0,0,1,92,100.31a22.87,22.87,0,0,0-2.91-3.19c-.59-.64-1-.18-2,.09a105.27,105.27,0,0,0-26.18,12.2,115.7,115.7,0,0,0-13.8,10.66c-2.6,2.32-5.42,5.1-7.83,7.74-.77.87-1.14.77-.64,1.87a25.48,25.48,0,0,0,1.87,3.87Zm15.8,22.49A22.11,22.11,0,0,0,58,158c.5-.14,3.6-1.91,4.46-2.32.55-.27,1-.55,1.5-.82A131.26,131.26,0,0,1,83,147c4.46-1.41,8.88-2.64,13.8-3.73a136.39,136.39,0,0,1,14.75-2.41,33.19,33.19,0,0,0-.91-5c-1.23.09-6.15,1-7.65,1.32-9.74,2-19.58,4.28-28.73,7.92-5.24,2-11.16,5.05-15.35,8.56a19.57,19.57,0,0,0-2.64,2.5Zm-6.51,52-7.42-5.83c-.09,1.5,1.59,6.42,2.14,7.79,3,7.74,6.33,13.39,10.52,20.45,2.64,4.46,5.46,8.7,8.24,12.89.73,1.14,1.46,2,2.19,3.14a6,6,0,0,0,2.87,2.73c2.46,1.5,6,2.32,8-.46l-2.69-2.64a99.94,99.94,0,0,1-7.38-8c-.68-.91-1.78-2-2.37-2.87l-2.64-3.64c-.18-.27-.41-.46-.59-.73l-2-3a70.83,70.83,0,0,1-8.15-18.26c-.18-.68-.18-1.27-.77-1.68Zm15.76,10a20.8,20.8,0,0,0,2.14,4.55l5.42,7.51a6.12,6.12,0,0,1,.5.64,151.54,151.54,0,0,0,18.62,17.53c1.64,1.37,5,2.5,7.38,3.19a23.19,23.19,0,0,0,8.61.82l-5.6-4.14c-1.91-1.41-3.64-2.82-5.46-4.23-2.73-2.09-8-6.51-10.34-8.83a50.65,50.65,0,0,1-6.6-7.38c-.18-.27-.27-.32-.5-.64-.91-1.18-1.32-3.1-2.09-3.42-.59-.27-1.32-.55-1.87-.77-1.18-.5-2.32-1-3.51-1.55l-6.65-3.23ZM46.47,144a23.12,23.12,0,0,0,2,2.78c.55-.5,1.87-2.46,2.46-3.19.87-1.09,1.73-2,2.64-3.05A65.06,65.06,0,0,1,59.31,135c2.46-2.19,3.87-3.05,6.1-4.83.5-.41,1.09-.73,1.64-1.09,8.2-5.87,21.36-11.47,30.69-14.62.73-.23,3.46-1,3.92-1.32-.18-.64-2-3-2.28-3.73-2,.14-13.93,4.6-15.71,5.28a114,114,0,0,0-11,5c-.64.36-1.14.64-1.78,1A81.8,81.8,0,0,0,61,127.08c-4,3.32-6.47,5.1-10,9.7-1.32,1.73-3.78,5.15-4.55,7.29Zm6.65,66.62c1,4.78,5.1,12.57,7.74,16.85l2,3.05a100.36,100.36,0,0,0,9.38,11.38c1.73,1.87,3.42,3.51,5.33,5.28,1.41,1.32,4.19,4.19,6,4.83,3.1,1.09,6.78,1.82,7.29-1.87l-5.42-4.55c-3.69-3.14-6.69-6.06-10-9.43-2-2-7.19-8-8.61-10.47-.55-1-1.18-1.87-1.73-2.91-4.14-8.06-.23-4.69-5.78-8.15l-6.24-4ZM50,148.67a23.07,23.07,0,0,0,2.14,2.82l5.15-5.83a69.1,69.1,0,0,1,11-8.88c.32-.18.55-.36.87-.55,9.61-6.15,21.63-10.75,32.88-13.39,1.18-.27,2.91-.77,4.1-.91a39.74,39.74,0,0,0-3.37-6.83c-2.5.5-13.11,4.55-15.3,5.51-5.46,2.37-7,3.23-11.61,5.6l-7.56,4.6c-.59.36-1,.82-1.59,1.18-1.14.73-2,1.5-3.1,2.28C59.13,137.65,53,143.84,50,148.76ZM35,230.36a21.2,21.2,0,0,0,4.55,6.56c2.37,2.09,4.87,3.19,8.83,3.69-.36-.82-1.55-2.55-2.09-3.46-5.05-8.52-8.92-15.21-12.8-24.73a91.22,91.22,0,0,1-4.92-15.66,49.89,49.89,0,0,1-1-8.79c0-1.18-.27-1.18-.87-1.82l-3.55-4.6c-.82,1.87-.87,7.83-.82,9.93.18,8.15,2.87,17.39,5.83,24.54.55,1.27,1,2.55,1.59,3.78,1.73,3.92,3.42,6.92,5.33,10.61Zm.68-34.2-5.83-6.1a54.25,54.25,0,0,0,1.5,9.11C34,209.91,41,224.57,47,234l3.28,5.28a10.3,10.3,0,0,0,.59.91,8.2,8.2,0,0,0,1.91,2.46,16,16,0,0,0,5.42,3.92,17.42,17.42,0,0,0,4.69,1.23c.41,0,.09,0,.36,0l.23-.09A5.53,5.53,0,0,1,62.22,246c-.23-.32-.46-.55-.68-.87l-2.78-4.33c-.23-.36-.41-.55-.64-.91a4.54,4.54,0,0,0-.55-.87l-1.14-1.78c-1.09-2-3.1-4.87-4.37-7.1-4.74-8.38-11.61-19.67-12.25-29.23-.09-1.41,0-1-1-1.87s-2-1.87-3.05-2.91Zm131-73.68,1.23,7.42A128.81,128.81,0,0,1,169,153.68c-.55,14.12-2.64,22.27-5.83,35.7a26.69,26.69,0,0,0,4-1.18c2.41-.77,1.91-.41,2.64-3.23.87-3.42,1.68-6.74,2.5-10.15,2.73-11.75,3.92-27.23,2.14-38.84-.64-4.37-1-8.56-3.69-11.7-1.14-1.32-2-1.64-4.14-1.82Zm-12.75-15.57,1.5,4.37a135.41,135.41,0,0,1,3.92,13.8,122.42,122.42,0,0,1,2.28,42c-1.23,10.06-2.64,14.43-5.33,23.86a25.85,25.85,0,0,0,4.23-.87c7.6-25.82,8.7-53.14.87-78.41-.55-1.78-1-3.14-2.14-4.28a5,5,0,0,0-5.28-.5Zm-112.34,29a39.07,39.07,0,0,0,3.46,5.87,52.63,52.63,0,0,1,13.07-15.3c.5-.41,1.09-.91,1.55-1.23s.46-.32.73-.55c1.18-.91,5.92-4.05,7.47-4.87l3.46-1.91c3.51-1.73,7.24-3.64,10.93-5.05,4-1.5,7.47-2.87,11.61-4.14a40.86,40.86,0,0,0,4-1.27l-3.78-5c-.46-.41-1.55,0-2.19.18a68.5,68.5,0,0,0-8.79,2.6A73.44,73.44,0,0,0,75,108.69a83.87,83.87,0,0,0-7.6,4.19c-1.18.91-2.37,1.46-3.55,2.32-.32.23-.5.41-.82.64a106,106,0,0,0-18.53,16.76A32.59,32.59,0,0,0,41.6,136Zm-4.42-9.52c.41-.23,4.42-4.42,5.19-5.15a110.45,110.45,0,0,1,11.16-9.47A104.87,104.87,0,0,1,82.9,96.21c.87-.32,3.05-.91,3.64-1.23L83.4,92.07c-1.14-1-.68-.87-4.14,0-3,.73-6,1.55-8.74,2.5A80.14,80.14,0,0,0,41,111.92a70.1,70.1,0,0,0-6,6.24c-.46.59,0,1.41.18,2s.41,1.41.64,2.09C36.22,123.67,36.77,125.08,37.18,126.4ZM140.86,99c.36.82.68,1.68,1,2.6,4.78,11.61,9.29,26,11.29,38.25,2.09,13,2.6,26.09-.59,39.39a68.17,68.17,0,0,1-2,6.78l-2.32,6.1a35.31,35.31,0,0,0,5.33-.68c.91-1,3.55-12.16,4-14.3a121.58,121.58,0,0,0-4.28-64.84c-1.23-3.55-3.69-10.11-5.28-13.48a6.81,6.81,0,0,0-5.28-3.28,6.35,6.35,0,0,0-3,.82,14.92,14.92,0,0,0,1,2.69ZM99.79,82.14l2.73,3.1a7.78,7.78,0,0,0,.5.64,65.78,65.78,0,0,1,5.15,6.6l1,1.27c17,24.27,24,50,19.58,80.14a130.27,130.27,0,0,1-2.64,13.21c-.36,1.37-.91,3-1.14,4.28l4.6.59c3.28-9.93,5.46-26.14,5.33-36.52a112.44,112.44,0,0,0-4.42-30.92,108.44,108.44,0,0,0-5.05-13.62c-1.5-3.42-3.05-6.33-4.83-9.52-.32-.55-.59-1-.87-1.5a139.23,139.23,0,0,0-10-14.66c-.5-.68-4.23-5.24-4.69-5.37a4.54,4.54,0,0,0-2.23.14,6.68,6.68,0,0,0-3,2.09ZM131.94,192.2a39.35,39.35,0,0,0,4.55.27c.5,0,.46,0,.68-.55,3.55-9,5.46-20.4,5.74-29.78a121.4,121.4,0,0,0-3.32-30.87C136.54,117.61,131,103.4,125.11,91c-1-2.09-2-4.33-3.14-6.24-.77-1.37-2.87-4.42-4.55-5.33a6.94,6.94,0,0,0-4.19-.09c-1.27.41-2,1.27-2.14,3-.18,1.55.14,1.27,1.55,3.1l7,10c.27.46.59,1,.91,1.5.59,1,1.23,1.91,1.78,3a126.45,126.45,0,0,1,6.19,12.43,109.87,109.87,0,0,1,8.7,43.94c0,12.43-2.14,23.59-5.28,35.88Zm41.76,10.75c-6.42,3.6-13.48,5.15-21.13,5.65-20.86,1.32-34.83,1.68-55.6-4.33a109.05,109.05,0,0,1-24.09-9.61C62.45,189,53,182.73,44.65,174.94a103,103,0,0,1-9.24-9.74l-1.64-2.09c-.87-1.18-3.23-4.19-4-5.42-.23-.41-.46-.64-.73-1l-2.73-4.55c-3.23-5.65-7.38-16-7.29-23.5-1.23,0-1.41,1.55-1.5,2.78-.18,3.46.77,5.78,1.78,8.88a58.82,58.82,0,0,0,4.42,10.47c1,1.68,4.64,8,6,9.52l2.46,3.42,8.33,9.65A135.7,135.7,0,0,0,53.25,185c14,11.34,26.68,18.44,44.62,24.5a120.38,120.38,0,0,0,44.49,5.92,120.94,120.94,0,0,0,27.78-5.74,4.64,4.64,0,0,0,2.55-1.23c1-1.14,2.64-4.23,2.23-6-.59,0-.82.23-1.37.55Zm-28-10.66c2.23-4.1,4.28-11.29,5.24-16.07a86.07,86.07,0,0,0,1.64-16.94,125.42,125.42,0,0,0-3.78-29.46c-3-12.52-8.56-27.37-14-38.93-.5-1.09-1-2-1.46-3.1-.91-2-6.47-6.24-9.47-4.23l1.46,2.87c3.37,7,6.33,13.16,9.11,20.63,9.38,25,14.66,51.18,7.38,77.77-.73,2.64-1.68,5.1-2.46,7.7Zm-129-40.62c2.28,6,3.46,7.33,6.1,11.75a75.3,75.3,0,0,0,4.64,6.47L29.07,172c11,13.16,23.91,23.91,40.8,33.38A84.83,84.83,0,0,0,80.8,211c15.21,5.87,24,8.61,41.39,10.15a158.8,158.8,0,0,0,27.09.27c2.28-.18,15-1.27,17.67-3.37a7.54,7.54,0,0,0,2.73-5.19c-7.47,2.09-14.53,4.37-23.27,4.78l-13.34.18c-16.48-.14-33.51-4.92-48.45-10.61-2.91-1.09-13.25-7.06-15.89-8.61a133.89,133.89,0,0,1-30.87-24.22c-2.19-2.28-3.32-3.82-5.19-6-.59-.68-1.09-1.41-1.64-2.09l-6-8.79a102.87,102.87,0,0,1-7-14.21c-.64-1.59-1.46-4.6-1.68-5.19s-1.82-1.5-2.37-.27c-.91,2,.14,7.74.77,8.79a33.76,33.76,0,0,1,2,5Zm6.15-30.33c-1.87,3.1-1.09,6.28-.36,9.61,2.23,10.43,7.24,20,12.57,29.05a22.58,22.58,0,0,0,3.32,4.51c.32.36.68.77,1,1.14,3.46,4.14,9.61,9.52,13.84,13a123.58,123.58,0,0,0,20.81,13.48,133.18,133.18,0,0,0,26.18,10.11,144.79,144.79,0,0,0,31.1,4.74,112.91,112.91,0,0,0,39.25-5.51,46.58,46.58,0,0,0,5.74-2c1.73-1.09,2.32-3.78,1.91-5.87-.5.14-.77.36-1.37.55-1.59.5-2.37,1-3.92,1.64a54.76,54.76,0,0,1-17.3,4.14c-2.23.18-4.05.55-6.24.87a119,119,0,0,1-72.95-13C65.82,182.14,57.26,174.9,49.25,167c-2.64-2.6-5-5.37-7.29-8.06a105.2,105.2,0,0,1-6.28-8.7,91.18,91.18,0,0,1-5.19-9.38,52.58,52.58,0,0,1-5.65-21.72,6.92,6.92,0,0,0-2,2.14ZM65.36,206.5c-23.18-12.89-42.53-31.87-51.64-55.28-.5-1.32-.87-3-1.55-3.51a1.62,1.62,0,0,0-1.27-.5c-1,2.28,1.37,9.33,2,11.2a91.19,91.19,0,0,0,10,18.72,110.3,110.3,0,0,0,9.84,12.52,124.31,124.31,0,0,0,53.46,34.7,113.14,113.14,0,0,0,28.73,5.6,254.65,254.65,0,0,0,27,.14c4.37-.14,8.7-.36,13.11-.55a8.38,8.38,0,0,0,3.1-.41c3-1.23,5-4.37,3.73-7a21.78,21.78,0,0,0-2.73.68,95.94,95.94,0,0,1-19.81,3c-15.76.5-25.41-2-39.93-6.06-13.39-3.73-21.81-6.51-34.11-13.34ZM80,187.05a78.6,78.6,0,0,0,11.84,5.46,116.27,116.27,0,0,0,56.92,6c1-.14,2.14-.41,3.19-.46a18,18,0,0,0,3.23-.36c2-.36,4-.77,6.06-1.27,4-1,7.83-2,11.57-3.23a24.45,24.45,0,0,0,5.19-2.41c1-.68,3-4,2.55-5.56-.64-.18-.91.14-1.37.36l-3.69,1.78c-1.64.77-3.37,1.41-5.1,2.09a79.64,79.64,0,0,1-11,3.19c-26,5.78-55.55-1.32-77.09-13.48A129.55,129.55,0,0,1,63.54,166.2a104,104,0,0,1-18.17-19.67l-4.28-6.6a82.46,82.46,0,0,1-9.7-25,18.26,18.26,0,0,0-.59-2.69c-2.55-.5-3.28,2.41-3.51,4.23.5.36.46-.18.68,1.18L28.8,122a93.3,93.3,0,0,0,15.89,35.52C54.07,170.3,65.41,179,80.07,187Z" transform="translate(-7.89 -2.89)"/><path d="M108.94,231.91c1.32.14,2.73.32,4,.36,1.5.09,1,.14,2.73,1.78a34.55,34.55,0,0,0,5.05,3.92,59.15,59.15,0,0,0,12.93,5.92c.23,1.09,0,2.91-2.19,2.5a15.69,15.69,0,0,1-3.78-1.68c-2.46-1.32-4.51-2.5-6.74-3.92C120.28,240.33,109.58,233,108.94,231.91Zm-16.07-3.1c2.82.55,5.6,1.41,9.15,2l1.59.27c.77.14.64.09,1.14.55,2.23,2,4.87,4,7.33,5.83,4.46,3.28,11.43,8.15,16.57,10.34-.41,2.28-1.68,3.64-3.87,3.55-2.73-.09-4.19-1.18-6-2.37a218,218,0,0,1-18.21-12.89c-1.78-1.46-7.06-5.92-7.83-7.29Zm25,3.82,7.19.23c1.91,0,1.55-.18,3.14.73,4.28,2.5,10.43,5.74,15.53,6.69-2.14,6.28-16.62-1.14-20.72-3.55a33.7,33.7,0,0,1-2.82-1.87L118,233c-.27-.41,0,.46-.09-.23a.46.46,0,0,1,0-.14Zm-36.47-7.38c2.14.59,4.28,1.5,6.47,2.19,1.59.5.91.32,2.14,1.78,8.74,10.29,28.6,22.13,29,22.68-1.32,2-3.14,2.37-5.87,1-2.5-1.27-12.7-9.2-14.94-11-3.19-2.55-6.42-5.19-9.15-7.83-1.87-1.78-7.19-7.1-7.65-8.83Zm50,7.56,13.3-.46c1.46,0,3-.23,4.37-.18.64,1.18.5,4.33-.73,5.28-3.73,2.91-13.84-3.32-17-4.69ZM65.68,218.2l6.65,3.23c1.18.55,2.32,1,3.51,1.55.59.23,1.27.5,1.87.77.77.36,1.23,2.23,2.09,3.42.23.32.32.36.5.64a50.65,50.65,0,0,0,6.6,7.38c2.37,2.32,7.56,6.74,10.34,8.83,1.82,1.37,3.55,2.82,5.46,4.23l5.6,4.14a22.28,22.28,0,0,1-8.61-.82c-2.41-.68-5.69-1.82-7.38-3.19A151.54,151.54,0,0,1,73.7,230.86a6.12,6.12,0,0,1-.5-.64l-5.42-7.51a20.8,20.8,0,0,1-2.14-4.55Zm-12.43-7.51,6.24,4c5.56,3.46,1.64.09,5.78,8.15.55,1,1.18,2,1.73,2.91,1.41,2.46,6.65,8.47,8.61,10.47,3.32,3.37,6.33,6.28,10,9.43L91,250.17c-.5,3.69-4.19,3-7.29,1.87-1.82-.64-4.6-3.51-6-4.83-1.91-1.78-3.6-3.42-5.33-5.28A105.47,105.47,0,0,1,63,230.54l-2-3.05c-2.69-4.28-6.74-12.07-7.74-16.85ZM42.51,202.4l7.42,5.83c.59.46.59,1,.77,1.68a71,71,0,0,0,8.15,18.26l2,3a8.31,8.31,0,0,0,.59.73L64,235.55c.59.87,1.64,2,2.37,2.87,1.55,2,5.51,6.15,7.38,8L76.48,249c-2,2.78-5.51,2-8,.46a6.44,6.44,0,0,1-2.87-2.73c-.73-1.14-1.46-2-2.19-3.14-2.78-4.19-5.6-8.42-8.24-12.89C51,223.66,47.74,218,44.69,210.28c-.55-1.37-2.23-6.28-2.14-7.79ZM30.07,190.15l5.83,6.1c1,1,2,1.91,3.05,2.91s.87.5,1,1.87c.64,9.56,7.56,20.86,12.25,29.23,1.27,2.23,3.28,5.15,4.37,7.1l1.14,1.78a4.54,4.54,0,0,1,.55.87c.23.36.41.55.64.91l2.78,4.33c.23.32.46.55.68.87.32.5.68,1.37,1.23,1.68l-.23.09c-.27,0,0,0-.36,0a15.89,15.89,0,0,1-4.69-1.23,16.42,16.42,0,0,1-5.42-3.92,8.8,8.8,0,0,1-1.91-2.46c-.27-.41-.36-.55-.59-.91l-3.28-5.28c-6-9.43-12.93-24.09-15.57-34.83A54.25,54.25,0,0,1,30,190.2Zm-6.83-8.56,3.55,4.6c.59.68.87.68.87,1.82a49.89,49.89,0,0,0,1,8.79,87.4,87.4,0,0,0,4.92,15.66c3.87,9.56,7.79,16.26,12.8,24.73.55.91,1.73,2.64,2.09,3.46A15.24,15.24,0,0,1,39.68,237a22.87,22.87,0,0,1-4.55-6.56c-2-3.69-3.6-6.69-5.33-10.61-.55-1.23-1.09-2.5-1.59-3.78-3-7.15-5.6-16.44-5.83-24.54,0-2.09,0-8.06.82-9.93Zm-5.65-8.47L19.47,176c2.78,4.6,2,1.18,1.14,7.56-1.55,11.38,1.46,23.31,5.74,33.56,1.64,4,3.23,7.33,5.19,11.16a13.76,13.76,0,0,1,.82,1.64c-7.6-3.19-11.38-17.67-12.89-24.82-.23-1.09-.41-2.64-.73-3.64-2-6.37-2.28-12.7-2-19.44.09-2,.32-7.19.87-8.92Zm-5.24-10.29,2.87,5.83c.68,1.23.32,1.68,0,3.78a107.23,107.23,0,0,0-1,16.21,36.22,36.22,0,0,1,.14,3.82C13,190.2,11,182,10.59,179c-.64-4.6-.64-11.61,1.73-16.21ZM60,159.78a18.57,18.57,0,0,1,2.78-1.64c.82-.41,2.19-1.23,3-1.5l2.14,3.87c2,3.6,3.55,6.06,5.69,9.43a11,11,0,0,1,1.23,1.87c-2.41-1.09-13.8-10.52-14.8-12ZM11.18,147.39a1.37,1.37,0,0,1,1.27.5c.64.5,1,2.19,1.55,3.51,9.11,23.41,28.51,42.39,51.64,55.28,12.29,6.83,20.67,9.61,34.11,13.34,14.53,4.05,24.18,6.51,39.93,6.06a90.17,90.17,0,0,0,19.81-3,21.78,21.78,0,0,1,2.73-.68c1.23,2.55-.73,5.74-3.73,7a8.24,8.24,0,0,1-3.1.41c-4.42.18-8.74.41-13.11.55a254.71,254.71,0,0,1-27-.14,113.14,113.14,0,0,1-28.73-5.6,124.31,124.31,0,0,1-53.46-34.7,115.68,115.68,0,0,1-9.84-12.52,89,89,0,0,1-10-18.72c-.73-1.87-3.1-8.92-2-11.2Zm56.92,8.06a26.38,26.38,0,0,1,4.23-1.82c1,1.23,1.87,2.55,2.78,3.78s1.82,2.5,2.78,3.78l4.23,5.65c4.37,5.56,7.24,9.2,12.07,14.57a14.25,14.25,0,0,1,1.59,1.82c-2-.73-13.16-6-14.71-7.51a12.25,12.25,0,0,1-1.5-1.87c-.5-.68-1-1.27-1.5-2a100.05,100.05,0,0,1-7.65-12.07,33.12,33.12,0,0,1-2.23-4.37Zm6.6-2.82a20.49,20.49,0,0,1,4-1.55c1.41,3,4.19,6.15,6,8.83a84.87,84.87,0,0,0,7.15,8.24,97.41,97.41,0,0,0,12.89,11,38.59,38.59,0,0,0,5,3.23,38.46,38.46,0,0,1-1.37,5.37c-1.46-.23-6-1.73-7-2.6-1.64-1.41-3-2.78-4.37-4.23-6.19-6.42-15.21-18.21-20.54-25.77A11.22,11.22,0,0,1,74.7,152.63ZM169.91,213a7.28,7.28,0,0,1-2.73,5.19c-2.64,2-15.39,3.19-17.67,3.37a158.8,158.8,0,0,1-27.09-.27C105.12,219.7,96.28,217,81,211.1a87.91,87.91,0,0,1-10.93-5.6C53.25,196,40.32,185.23,29.3,172.12L27.62,170A75.3,75.3,0,0,1,23,163.56c-2.64-4.42-3.82-5.83-6.1-11.75a47.78,47.78,0,0,0-2-5c-.64-1-1.68-6.83-.77-8.79.55-1.23,2.14-.32,2.37.27s1,3.64,1.68,5.19a102.87,102.87,0,0,0,7,14.21l6,8.79c.55.68,1,1.41,1.64,2.09,1.91,2.19,3,3.73,5.19,6A133.89,133.89,0,0,0,68.83,198.8c2.64,1.55,13,7.51,15.89,8.61,15,5.69,32,10.47,48.45,10.61l13.34-.18c8.74-.46,15.8-2.69,23.27-4.78ZM81,150.22c1-.64,4.42-1.41,5.74-2A15.25,15.25,0,0,1,88,150.17l3.69,5.69a67,67,0,0,0,5.69,7.1c2.87,3.14,9.84,10.25,13.66,12.75l-.82,4.14a43.33,43.33,0,0,1-4.64-3.1,90.3,90.3,0,0,1-18.85-18.12c-1-1.32-5.24-7.19-5.69-8.42ZM95.33,146l3.6,5.51c1,1.46,2.87,3.78,3.92,5.19a57,57,0,0,0,4.46,5,60.1,60.1,0,0,0,5,4.46,53,53,0,0,1-.91,6.78,32,32,0,0,1-3.42-2.82,91.58,91.58,0,0,1-14.25-15.53c-.73-1-4.28-6.1-4.42-7.1l6-1.5Zm8.2-1.68c.59.64,2.14,5.28,6.19,9.06,3.37,3.1,3.14,1.41,3.1,4.23,0,.64,0,1.23,0,1.91a24.84,24.84,0,0,1-.27,3.73c-2.32-1.5-6.28-6.19-8.11-8.38-1.18-1.41-2.41-3.1-3.46-4.64-.55-.82-2.87-4.1-3-4.83l5.6-1Zm-84.1-15.71c-.14,7.51,4.05,17.85,7.29,23.5l2.73,4.55c.27.41.46.64.73,1,.68,1.18,3.1,4.23,4,5.42l1.64,2.09A103,103,0,0,0,45,175,134.85,134.85,0,0,0,73.24,194.7a106.88,106.88,0,0,0,24.09,9.61c20.76,6,34.74,5.65,55.6,4.33,7.6-.5,14.71-2,21.13-5.65.5-.27.73-.55,1.37-.55.41,1.78-1.18,4.83-2.23,6-.77.87-1.37.87-2.55,1.23a120.94,120.94,0,0,1-27.78,5.74,119.19,119.19,0,0,1-44.49-5.92C80.44,203.4,67.73,196.3,53.75,185A129.82,129.82,0,0,1,41,173.21l-8.33-9.65-2.46-3.42a110.93,110.93,0,0,1-6-9.52,57.43,57.43,0,0,1-4.42-10.47c-1-3.1-2-5.42-1.78-8.88,0-1.27.27-2.73,1.5-2.78ZM106,143.84a56.5,56.5,0,0,1,6.06-.77c.41,1,.91,8.47.82,10-2.37-1.41-6.33-6.92-6.88-9.24Zm-49.5,12.39a15.34,15.34,0,0,1,2.64-2.5c4.19-3.51,10.15-6.47,15.35-8.56,9.15-3.64,19-6,28.73-7.92,1.5-.32,6.37-1.23,7.65-1.32.18,1.27,1,3.78.91,5A136.39,136.39,0,0,0,97,143.34c-4.87,1.09-9.33,2.32-13.8,3.73a126.34,126.34,0,0,0-19,7.83c-.55.27-1,.5-1.5.82-.87.41-4,2.23-4.46,2.32a11.22,11.22,0,0,1-1.73-1.87ZM25,119.39c.14,8,2.73,15.66,5.65,21.72a90.28,90.28,0,0,0,5.19,9.38,105.2,105.2,0,0,0,6.28,8.7c2.28,2.64,4.64,5.42,7.29,8.06,8,7.88,16.57,15.12,27.09,20.76a119.39,119.39,0,0,0,72.95,13c2.19-.32,4-.64,6.24-.87A56,56,0,0,0,173,196c1.55-.59,2.32-1.14,3.92-1.64.59-.18.87-.41,1.37-.55.46,2-.18,4.78-1.91,5.87a55.62,55.62,0,0,1-5.74,2,114,114,0,0,1-39.25,5.51,144.36,144.36,0,0,1-31.1-4.74,132.08,132.08,0,0,1-26.18-10.11A126.47,126.47,0,0,1,53.3,178.86c-4.23-3.46-10.43-8.83-13.84-13-.27-.36-.64-.77-1-1.14a24,24,0,0,1-3.32-4.51c-5.33-9.06-10.34-18.62-12.57-29.05-.73-3.37-1.46-6.51.36-9.61a6.92,6.92,0,0,1,2-2.14ZM72.7,143.57a33.58,33.58,0,0,1,4.1-2.55l4.14-2.28a113.43,113.43,0,0,1,23.13-8.61,35.75,35.75,0,0,1,5-1.14l1.27,4.74a35,35,0,0,1-5,1c-8.92,1.64-19.85,4.14-28.23,7.19l-4.42,1.64Zm99.54,43c.18-1.37,1-3.64,1.32-5.15.46-1.82.87-3.64,1.27-5.46.82-3.69,1.46-7.42,2-11.16A126.5,126.5,0,0,0,178,149.4c0-1.41-.18-3.46,0-4.74,2.09,1.55,3.69,5.92,4.19,9.29a46.58,46.58,0,0,1,0,12.07A70.33,70.33,0,0,1,178.2,182c-1,2.64-.32,2.23-3.6,3.64-.73.32-1.68.64-2.32,1ZM27.57,116.7c.23-1.82,1-4.74,3.51-4.23a18.26,18.26,0,0,1,.59,2.69,84.89,84.89,0,0,0,9.7,25l4.28,6.6a106.91,106.91,0,0,0,18.17,19.67,126,126,0,0,0,18.76,12.93c21.54,12.16,51.09,19.26,77.09,13.48a79.64,79.64,0,0,0,11-3.19c1.73-.68,3.46-1.32,5.1-2.09l3.69-1.78c.46-.23.73-.55,1.37-.36.36,1.55-1.64,4.87-2.55,5.56a25.53,25.53,0,0,1-5.19,2.41,116.72,116.72,0,0,1-11.57,3.23c-2,.5-4,.91-6.06,1.27a23.37,23.37,0,0,1-3.23.36c-1,0-2.19.32-3.19.46a116.27,116.27,0,0,1-56.92-6,76.27,76.27,0,0,1-11.84-5.46c-14.66-8.06-26-16.71-35.38-29.46A93.3,93.3,0,0,1,29,122.3l-.82-4.37c-.18-1.37-.18-.82-.68-1.18Zm26.32,36.84c1-2.46,8.15-9.15,10.61-11.11a74.12,74.12,0,0,1,9.43-6.33l3.32-1.82c6-3.23,15.39-6.56,21.95-8.29,1.78-.46,6.37-1.73,8-2l1,3c-2.37.14-13.11,3.51-15.25,4.28-7.38,2.64-17.39,7.19-23.59,11.79l-4.46,3.28c-1.23.91-3.23,2.82-4.28,3.51l-5.74,4.69a11.36,11.36,0,0,1-1-1Zm-3.69-4.69c3.05-4.92,9.15-11.11,13.62-14.48,1-.77,2-1.55,3.1-2.28.55-.36,1-.82,1.59-1.18l7.56-4.6c4.6-2.37,6.15-3.23,11.61-5.6,2.19-1,12.8-5,15.3-5.51a41.46,41.46,0,0,1,3.37,6.83c-1.18.14-2.87.64-4.1.91C91,125.58,79,130.18,69.37,136.33a9.07,9.07,0,0,1-.87.55,67.13,67.13,0,0,0-11,8.88l-5.15,5.83a23.07,23.07,0,0,1-2.14-2.82Zm-3.51-4.69c.77-2.14,3.23-5.56,4.55-7.29,3.51-4.6,6-6.37,10-9.7a81.8,81.8,0,0,1,9.93-6.47c.59-.27,1.14-.59,1.78-1a119.25,119.25,0,0,1,11-5c1.78-.68,13.75-5.19,15.71-5.28.32.73,2.09,3.14,2.28,3.73-.46.27-3.19,1.09-3.92,1.32-9.33,3.14-22.49,8.74-30.69,14.62-.55.36-1.14.68-1.64,1.09-2.23,1.78-3.64,2.64-6.1,4.83a65.06,65.06,0,0,0-5.69,5.56c-.91,1-1.78,2-2.64,3.05a32.35,32.35,0,0,1-2.46,3.19,29.36,29.36,0,0,1-2-2.78Zm116.75,45.4c3.19-13.43,5.28-21.63,5.83-35.7a125,125,0,0,0-1.14-23.77l-1.23-7.42c2.19.18,3,.5,4.14,1.82,2.73,3.14,3,7.33,3.69,11.7,1.73,11.61.59,27-2.14,38.84-.77,3.42-1.59,6.74-2.5,10.15-.73,2.78-.27,2.41-2.64,3.23a31.06,31.06,0,0,1-4,1.18ZM41.82,136.05a32.59,32.59,0,0,1,2.87-3.42,106.19,106.19,0,0,1,18.53-16.76c.32-.23.5-.41.82-.64,1.18-.87,2.37-1.41,3.55-2.32s6.06-3.42,7.6-4.19a73.44,73.44,0,0,1,8.11-3.42,79.49,79.49,0,0,1,8.79-2.6c.64-.14,1.73-.55,2.19-.18l3.78,5a40.86,40.86,0,0,1-4,1.27c-4.14,1.27-7.65,2.64-11.61,4.14A119.69,119.69,0,0,0,71.56,118l-3.46,1.91c-1.55.82-6.28,4-7.47,4.87-.32.23-.36.32-.73.55s-1,.82-1.55,1.23a50.82,50.82,0,0,0-13.07,15.3A43.34,43.34,0,0,1,41.82,136Zm-1.14-2.28a30.47,30.47,0,0,1-1.87-3.87c-.5-1.09-.14-1,.64-1.87,2.41-2.64,5.24-5.42,7.83-7.74a119.48,119.48,0,0,1,13.8-10.66,105.27,105.27,0,0,1,26.18-12.2c1-.27,1.41-.68,2-.09a26.44,26.44,0,0,1,2.91,3.19,77.14,77.14,0,0,0-15.39,5.05C62.45,112.06,50.47,122,40.68,133.82ZM154.2,107a4.87,4.87,0,0,1,5.28.5c1.23,1.14,1.64,2.55,2.14,4.28,7.83,25.27,6.74,52.59-.87,78.41a25.85,25.85,0,0,1-4.23.87c2.69-9.43,4.1-13.84,5.33-23.86a120.2,120.2,0,0,0-2.28-42c-1-4.14-2.5-9.74-3.92-13.8l-1.5-4.37ZM37.45,126.49c-.41-1.32-1-2.69-1.41-4.1-.23-.68-.41-1.37-.64-2.09s-.64-1.46-.18-2a70.1,70.1,0,0,1,6-6.24A80.88,80.88,0,0,1,70.78,94.62c2.78-1,5.74-1.78,8.74-2.5,3.51-.82,3-1,4.14,0l3.14,2.91a28.35,28.35,0,0,1-3.64,1.23A104.25,104.25,0,0,0,53.8,111.87a116.69,116.69,0,0,0-11.16,9.47C41.87,122.07,37.86,126.26,37.45,126.49Zm-3.23-10.88c-1-4.28-1.14-3.37,1.5-7,4.55-6.19,10-10.34,16.48-14,7.51-4.28,14.8-6.06,23.31-7.88,1.09-.23,1-.32,1.87.36a32,32,0,0,0,3,2.23l-.5.27c-.09,0-.27,0-.41.09l-2.64.64c-1.14.27-2.28.59-3.37.91-2.23.68-4.42,1.37-6.51,2.19-3.69,1.46-11.84,5.1-15.07,7.38-1,.68-1.78,1.09-2.78,1.78a87.57,87.57,0,0,0-10.2,8.24l-4.69,4.74ZM140.13,96.44a6,6,0,0,1,3-.82,6.73,6.73,0,0,1,5.28,3.28c1.59,3.37,4.05,9.93,5.28,13.48a121.55,121.55,0,0,1,4.28,64.84c-.46,2.14-3.1,13.3-4,14.3a30.3,30.3,0,0,1-5.33.68l2.32-6.1a68.17,68.17,0,0,0,2-6.78c3.19-13.3,2.69-26.36.59-39.39-2-12.29-6.51-26.68-11.29-38.25-.36-.91-.73-1.73-1-2.6a19.3,19.3,0,0,1-1-2.69ZM89.77,82.23a4.11,4.11,0,0,1,5-2.32c1,.32,5.51,5.74,6.24,6.65.18.23.36.36.59.64l1.18,1.41c2.37,3,4.92,6.33,7,9.47.18.27.32.36.5.64s.27.5.46.77l2.87,4.6a104.67,104.67,0,0,1,9.15,19.81c7.06,19.94,7.24,43.62.41,67.26-1.46.18-10.29-2.09-12.2-2.6a39.14,39.14,0,0,1,1-4.19c.73-3.05,1.91-10.25,2.32-13.3a117.24,117.24,0,0,0,1-16.35c-.18-14.8-3.78-30.69-11.79-43.26-.64-1-1.09-1.87-1.78-2.78l-2.82-4.05c-.36-.46-.68-.82-1-1.27-3.82-4.46-4-5-9.06-9.84a103.66,103.66,0,0,0-10-8.24c-.36-.27-.46-.27-.59-.59a3.21,3.21,0,0,1,2-3.19,11.85,11.85,0,0,1,4.05-.82c1.68.09,9.47,8.7,10.79,10.2l2.32,2.87c5.92,7.06,12.16,19,16,28.55a142.77,142.77,0,0,1,4.87,14.07c3.69,14,.23,39-2.19,53.23l2.14.32c.5-1.09,1.18-7.1,1.41-8.74.41-2.82.77-5.69,1.09-8.52,1.14-10.06,2-22,.68-31.92-1-7.1-5.74-19.31-8.74-25.82-1-2-1.91-4-2.91-6-2.46-4.78-4.14-7.15-6.78-11.43l-4-5.37a93.22,93.22,0,0,0-7.88-8.65,15.65,15.65,0,0,1-1.23-1.23Zm10.29,0a6.68,6.68,0,0,1,3-2.09A5.16,5.16,0,0,1,105.3,80c.46.14,4.14,4.74,4.69,5.37A139.23,139.23,0,0,1,120,100c.27.55.55,1,.87,1.5,1.78,3.19,3.32,6.1,4.83,9.52a101.76,101.76,0,0,1,5.05,13.62,110.49,110.49,0,0,1,4.42,30.92c.09,10.38-2,26.59-5.33,36.52l-4.6-.59c.23-1.32.77-3,1.14-4.28A130.27,130.27,0,0,0,129,174c4.42-30.24-2.6-55.87-19.58-80.14l-1-1.27a65.78,65.78,0,0,0-5.15-6.6c-.23-.27-.27-.36-.5-.64L100,82.28Zm32.15,110.06c3.14-12.29,5.24-23.41,5.28-35.88a109.87,109.87,0,0,0-8.7-43.94A137.44,137.44,0,0,0,122.6,100c-.55-1.09-1.23-2-1.78-3a16.47,16.47,0,0,0-.91-1.5l-7-10c-1.41-1.82-1.78-1.55-1.55-3.1.23-1.73.87-2.6,2.14-3a7.3,7.3,0,0,1,4.19.09c1.68.91,3.78,4,4.55,5.33,1.09,1.91,2.14,4.14,3.14,6.24,5.87,12.34,11.43,26.59,14.48,40.25a125.65,125.65,0,0,1,3.32,30.87c-.27,9.38-2.19,20.81-5.74,29.78-.23.55-.14.5-.68.55a39.35,39.35,0,0,1-4.55-.27Zm-8-108.65c3-2,8.56,2.19,9.47,4.23.46,1,1,2,1.46,3.1,5.42,11.57,11,26.41,14,38.93a123.07,123.07,0,0,1,3.78,29.46,89.31,89.31,0,0,1-1.64,16.94c-1,4.78-3,12-5.24,16.07l-6.33.23c.77-2.6,1.73-5.05,2.46-7.7,7.29-26.59,2-52.73-7.38-77.77C132,99.72,129,93.52,125.65,86.51Zm-14.89-3c-.87-.41-1.78-2.64-3-2.82l-.82-.14a8,8,0,0,0-6.83,2.55C97,78.72,97,77.9,94.37,77.45c-3-.5-4.78,1.14-6.37,3-.77-.68-2-2-3.14-2.14-2.37-.27-6.06.73-7.6,2.23-.64.64-2,2.46-1.59,3.82l-3.37.68a55.36,55.36,0,0,0-6.69,1.68c-1.09.36-2.14.59-3.23,1a65,65,0,0,0-6.1,2.32,62.09,62.09,0,0,0-5.78,2.87l-1.32.73a24.53,24.53,0,0,0-2.73,1.68c-1.23,1-2.64,1.82-3.82,2.82a50.68,50.68,0,0,0-6.92,6.69c-.68.87-1.46,1.73-2,2.6-.36.5-.64.87-1,1.37s-.64,1-1,1.37a4.36,4.36,0,0,0-4.6,1.46c-1.18,1.41-1.46,2.82-1.91,5.15-2.32.18-4.83,4.23-5.24,6.33L19.6,125c-.14.68,0,.77-.14,1.41-2.14-.32-3.32,2.09-3.64,3.78s0,3.42.09,5.05c-5.51-1-4.64,7.1-3.87,9.79-5-.87-3.42,6.92-2.82,9L11,160c-.09.55-1.91,4.1-2.6,7.7a35.53,35.53,0,0,0,0,12.43,56.85,56.85,0,0,0,3.78,13c1,2.46,2.14,4.87,3.32,7.24a6.87,6.87,0,0,1,1,2.41l.55,2.82c1.18,5.56,3.1,13,6,17.8a25.25,25.25,0,0,0,4.78,6.28,13.62,13.62,0,0,0,5,3c2,.59,1.32.5,2.69,2.82,2,3.55,6.47,6.37,10.88,7.15l2.14.36c.73.09,1.59-.09,2.09.5a18,18,0,0,0,12.89,6.69c2,.18,1.41-.27,3.19.91,3.55,2.37,8.56,3.32,11.57-.27,2,.82,1.91,3.19,8,4.23,3,.5,6.56-.27,7.15-3.42.64.14,3.14,1.27,4,1.55a25.85,25.85,0,0,0,12.84,1.23c.77-.18.73-.18,1.32.18,2.78,1.64,6.51,2.14,8.88-.36.46-.5.68-.91,1.09-1.41a10,10,0,0,0,5.15.5c3.05-.68,3.55-2.64,4.51-4.64,3.28.55,4.78-1.14,5.33-4,2.64.46,4.78.73,7.1-.5a6.75,6.75,0,0,0,3-3.69,5.74,5.74,0,0,0,4.74-2.46,6.82,6.82,0,0,0,.87-4.42,6.14,6.14,0,0,1-.09-1.59,42.07,42.07,0,0,0,6.33-.27,9.27,9.27,0,0,0,5.74-4.23c2-3.23.59-5.28.68-6.19A6.29,6.29,0,0,0,166,221a8.58,8.58,0,0,0,3.37-1.78,10.55,10.55,0,0,0,2.87-5.87c.18-1-.14-1.23-.18-2,2.19-.09,4.92-4.1,5.46-6.65a6,6,0,0,0,0-3.23c2.69-1.09,3.69-5.37,3.23-8-.18-1-.73-1.23,0-2a10.5,10.5,0,0,0,2.55-5.24c.41-2.09-1-3.32-3-3.23a26.61,26.61,0,0,1,.91-2.69c.32-1,.55-1.87.91-2.87a58.49,58.49,0,0,0,2.69-14.75c.46-7,0-15.57-6-20.45-.5-.41-.91-.55-1-1.23a64.37,64.37,0,0,0-2.14-13.57c-.82-2.64-3.23-6.51-6.56-7.1a7.23,7.23,0,0,0-2.6-.18c-.59-1.82-.91-3.82-1.46-5.69s-1-3.78-1.73-5.56c-1.55-4.1-4.92-6.37-10-4.33a71.45,71.45,0,0,0-2.78-6.69c-1.55-3.32-6.51-5.74-10.34-4.14a6.55,6.55,0,0,1-1.09.41,59.93,59.93,0,0,0-3.1-6.83,8.56,8.56,0,0,0-3.64-4.1,12,12,0,0,0-5.69-2.46,6.52,6.52,0,0,0-3.87.77,12.19,12.19,0,0,0-2.09-2.6,7.05,7.05,0,0,0-3.37-2c-3.23-.55-7.51.32-8.15,3.64Z" transform="translate(-7.89 -2.89)"/><path class="cls-2" d="M147.65,29.27c.41.46.68.82,1,1.27l2.82,4.05c.68.91,1.14,1.78,1.78,2.78,8,12.57,11.61,28.46,11.79,43.26A116.36,116.36,0,0,1,164,97c-.41,3-1.59,10.2-2.32,13.3a39.14,39.14,0,0,0-1,4.19c2,.5,10.79,2.78,12.2,2.6,6.83-23.63,6.65-47.31-.41-67.26A109,109,0,0,0,163.4,30l-2.87-4.6c-.18-.32-.27-.5-.46-.77s-.32-.36-.5-.64c-2-3.14-4.6-6.47-7-9.47l-1.18-1.41a8.14,8.14,0,0,1-.59-.64c-.73-.91-5.19-6.33-6.24-6.65a4.23,4.23,0,0,0-5,2.32,15.65,15.65,0,0,0,1.23,1.23A107.29,107.29,0,0,1,148.74,18l4,5.37a124.09,124.09,0,0,1,6.78,11.43c1,2,2,3.87,2.91,6,3,6.51,7.79,18.76,8.74,25.82,1.37,9.88.46,21.86-.68,31.92-.32,2.82-.68,5.69-1.09,8.52-.23,1.59-1,7.65-1.41,8.74l-2.14-.32c2.41-14.25,5.87-39.25,2.19-53.23-1-3.82-3.37-10.29-4.87-14.07-3.82-9.56-10.06-21.49-16-28.55l-2.32-2.87c-1.32-1.5-9.11-10.11-10.79-10.2a11.85,11.85,0,0,0-4.05.82,3.25,3.25,0,0,0-2,3.19,1.81,1.81,0,0,0,.59.59,103.66,103.66,0,0,1,10,8.24c5.1,4.83,5.24,5.37,9.06,9.84Zm8.24,40.53c.59,2.32,4.51,7.83,6.88,9.24.09-1.5-.41-9-.82-10a56.5,56.5,0,0,0-6.06.77ZM109.95,85.73c1,1.46,12.39,10.93,14.8,12a8.78,8.78,0,0,0-1.23-1.87c-2.14-3.37-3.69-5.83-5.69-9.43l-2.14-3.87a25.81,25.81,0,0,0-3,1.5,18.57,18.57,0,0,0-2.78,1.64Zm49,72.13c.64,1.14,11.34,8.42,12,8.88,2.23,1.41,4.28,2.64,6.74,3.92a17.69,17.69,0,0,0,3.78,1.68c2.23.41,2.46-1.41,2.19-2.5a59.15,59.15,0,0,1-12.93-5.92,34.55,34.55,0,0,1-5.05-3.92c-1.68-1.64-1.23-1.68-2.73-1.78C161.58,158.13,160.22,158,158.9,157.86Zm22.49.91c3.14,1.37,13.25,7.6,17,4.69,1.23-1,1.37-4.1.73-5.28-1.37,0-3,.14-4.37.18l-13.3.46Zm-119.12-70c-2.41,4.6-2.37,11.61-1.73,16.21.41,3,2.41,11.11,3.87,13.43,0-1.14-.14-2.64-.14-3.82a107.58,107.58,0,0,1,1-16.21c.27-2.09.64-2.55,0-3.78l-2.87-5.83Zm85.52-17.39c.14.77,2.46,4,3,4.83,1,1.55,2.28,3.23,3.46,4.64,1.82,2.14,5.78,6.88,8.11,8.38a24.4,24.4,0,0,0,.27-3.73c0-.64,0-1.27,0-1.91,0-2.82.27-1.09-3.1-4.23-4.05-3.73-5.56-8.38-6.19-9.06l-5.6,1Zm20.08,87.25a.46.46,0,0,1,0,.14c0,.68-.18-.18.09.23l2.28,1.82c.87.64,1.87,1.27,2.82,1.87,4.1,2.46,18.58,9.84,20.72,3.55-5.05-1-11.2-4.23-15.53-6.69-1.55-.91-1.23-.68-3.14-.73l-7.19-.23ZM122.56,69.52,127,67.88c8.38-3.05,19.31-5.56,28.23-7.19a35,35,0,0,0,5-1L158.94,55a37.26,37.26,0,0,0-5,1.14,114.43,114.43,0,0,0-23.13,8.61L126.66,67a31.61,31.61,0,0,0-4.1,2.55Zm8.83,81.69c.46,1.78,5.78,7.06,7.65,8.83,2.73,2.64,6,5.28,9.15,7.83,2.23,1.78,12.43,9.7,14.94,11,2.73,1.37,4.55,1,5.87-1-.41-.55-20.22-12.39-29-22.68-1.23-1.46-.55-1.32-2.14-1.78-2.19-.68-4.37-1.55-6.47-2.19Zm7.83-77.73c.14,1,3.69,6.1,4.42,7.1a89.89,89.89,0,0,0,14.25,15.53,33,33,0,0,0,3.42,2.82,53,53,0,0,0,.91-6.78,53.6,53.6,0,0,1-5-4.46,64.55,64.55,0,0,1-4.46-5c-1-1.41-3-3.73-3.92-5.19L145.24,72l-6,1.5ZM81.44,154.26c-2-3.78-3.55-7.15-5.19-11.16C72,132.82,69,120.93,70.51,109.55c.87-6.33,1.68-3-1.14-7.56l-1.87-2.91c-.55,1.73-.77,6.92-.87,8.92-.32,6.74-.14,13.07,2,19.44.32,1,.5,2.55.73,3.64,1.5,7.15,5.28,21.63,12.89,24.82a11,11,0,0,0-.82-1.64ZM222.1,112.51c.64-.32,1.59-.64,2.32-1,3.28-1.41,2.64-1,3.6-3.64A68,68,0,0,0,231.94,92a44.65,44.65,0,0,0,0-12.07c-.5-3.32-2-7.7-4.19-9.29-.14,1.27,0,3.32,0,4.74a118,118,0,0,1-1.18,15.44c-.5,3.73-1.18,7.47-2,11.16-.41,1.82-.82,3.64-1.27,5.46-.36,1.46-1.14,3.73-1.32,5.15ZM118,81.41a36.18,36.18,0,0,0,2.23,4.37,103.76,103.76,0,0,0,7.65,12.07c.5.68,1,1.27,1.5,2a12.25,12.25,0,0,0,1.5,1.87c1.55,1.46,12.7,6.78,14.71,7.51-.32-.5-1.09-1.23-1.59-1.82-4.83-5.37-7.7-9-12.07-14.57l-4.23-5.65c-1-1.27-1.82-2.46-2.78-3.78s-1.78-2.55-2.78-3.78a42.36,42.36,0,0,0-4.23,1.82Zm-14.25-2c.41.32.64.77,1,1l5.74-4.69c1-.68,3.1-2.55,4.28-3.51L119.28,69c6.15-4.55,16.17-9.11,23.59-11.79,2.09-.77,12.89-4.14,15.25-4.28l-1-3c-1.64.23-6.19,1.5-8,2a117,117,0,0,0-21.95,8.29L123.83,62a68.18,68.18,0,0,0-9.43,6.33c-2.46,1.91-9.61,8.61-10.61,11.11Zm27.14-3.23c.41,1.23,4.64,7.1,5.69,8.42a88,88,0,0,0,18.85,18.12,39.21,39.21,0,0,0,4.64,3.1l.82-4.14c-3.82-2.5-10.79-9.61-13.66-12.75a72,72,0,0,1-5.69-7.1l-3.69-5.69a15.25,15.25,0,0,0-1.18-1.91c-1.37.5-4.78,1.32-5.74,2Zm11.88,78.55c.73,1.37,6,5.87,7.83,7.29a210.73,210.73,0,0,0,18.21,12.89c1.78,1.14,3.23,2.28,6,2.37,2.23,0,3.46-1.27,3.87-3.55-5.15-2.19-12.11-7.06-16.57-10.34-2.5-1.82-5.1-3.87-7.33-5.83-.55-.46-.36-.41-1.14-.55l-1.59-.27c-3.6-.59-6.33-1.46-9.15-2ZM124.56,78.54a12.36,12.36,0,0,0,1.73,2.5c5.33,7.56,14.34,19.35,20.54,25.77,1.46,1.5,2.78,2.87,4.37,4.23,1,.87,5.51,2.37,7,2.6a38.46,38.46,0,0,0,1.37-5.37,57.84,57.84,0,0,1-5-3.23,94.11,94.11,0,0,1-12.89-11,79.07,79.07,0,0,1-7.15-8.24c-1.82-2.73-4.6-5.87-6-8.83A16,16,0,0,0,124.56,78.54ZM84,41.47l4.69-4.74a86.68,86.68,0,0,1,10.2-8.24c1-.68,1.82-1.09,2.78-1.78,3.19-2.28,11.34-5.92,15.07-7.38,2.09-.82,4.28-1.5,6.51-2.19,1.09-.32,2.23-.64,3.37-.91l2.64-.64c.14,0,.27,0,.41-.09l.5-.27c-.87-.5-2.09-1.55-3-2.23s-.77-.59-1.87-.36c-8.52,1.78-15.8,3.6-23.31,7.88-6.47,3.69-11.88,7.83-16.48,14-2.64,3.55-2.46,2.64-1.5,7ZM90.5,59.59c9.79-11.79,21.77-21.77,36.16-28.23A76.19,76.19,0,0,1,142,26.31a22.87,22.87,0,0,0-2.91-3.19c-.59-.64-1-.18-2,.09a105.27,105.27,0,0,0-26.18,12.2,115.7,115.7,0,0,0-13.8,10.66c-2.6,2.32-5.42,5.1-7.83,7.74-.77.87-1.14.77-.64,1.87a25.48,25.48,0,0,0,1.87,3.87Zm15.8,22.49A22.11,22.11,0,0,0,108,84c.5-.14,3.6-1.91,4.46-2.32.55-.27,1-.55,1.5-.82A131.26,131.26,0,0,1,133,73c4.46-1.41,8.88-2.64,13.8-3.73a136.39,136.39,0,0,1,14.75-2.41,33.19,33.19,0,0,0-.91-5c-1.23.09-6.15,1-7.65,1.32-9.74,2-19.58,4.28-28.73,7.92-5.24,2-11.16,5.05-15.35,8.56a19.57,19.57,0,0,0-2.64,2.5Zm-6.51,52-7.42-5.83c-.09,1.5,1.59,6.42,2.14,7.79,3,7.74,6.33,13.39,10.52,20.45,2.64,4.46,5.46,8.7,8.24,12.89.73,1.14,1.46,2,2.19,3.14a6,6,0,0,0,2.87,2.73c2.46,1.5,6,2.32,8-.46l-2.69-2.64a99.94,99.94,0,0,1-7.38-8c-.68-.91-1.78-2-2.37-2.87l-2.64-3.64c-.18-.27-.41-.46-.59-.73l-2-3a70.83,70.83,0,0,1-8.15-18.26c-.18-.68-.18-1.27-.77-1.68Zm15.76,10a20.8,20.8,0,0,0,2.14,4.55l5.42,7.51a6.12,6.12,0,0,1,.5.64,151.54,151.54,0,0,0,18.62,17.53c1.64,1.37,5,2.5,7.38,3.19a23.19,23.19,0,0,0,8.61.82l-5.6-4.14c-1.91-1.41-3.64-2.82-5.46-4.23-2.73-2.09-8-6.51-10.34-8.83a50.65,50.65,0,0,1-6.6-7.38c-.18-.27-.27-.32-.5-.64-.91-1.18-1.32-3.1-2.09-3.42-.59-.27-1.32-.55-1.87-.77-1.18-.5-2.32-1-3.51-1.55l-6.65-3.23ZM96.47,70a23.12,23.12,0,0,0,2,2.78c.55-.5,1.87-2.46,2.46-3.19.87-1.09,1.73-2,2.64-3.05A65.06,65.06,0,0,1,109.31,61c2.46-2.19,3.87-3.05,6.1-4.83.5-.41,1.09-.73,1.64-1.09,8.2-5.87,21.36-11.47,30.69-14.62.73-.23,3.46-1,3.92-1.32-.18-.64-2-3-2.28-3.73-2,.14-13.93,4.6-15.71,5.28a114,114,0,0,0-11,5c-.64.36-1.14.64-1.78,1A81.8,81.8,0,0,0,111,53.08c-4,3.32-6.47,5.1-10,9.7-1.32,1.73-3.78,5.15-4.55,7.29Zm6.65,66.62c1,4.78,5.1,12.57,7.74,16.85l2,3.05a100.36,100.36,0,0,0,9.38,11.38c1.73,1.87,3.42,3.51,5.33,5.28,1.41,1.32,4.19,4.19,6,4.83,3.1,1.09,6.78,1.82,7.29-1.87l-5.42-4.55c-3.69-3.14-6.69-6.06-10-9.43-2-2-7.19-8-8.61-10.47-.55-1-1.18-1.87-1.73-2.91-4.14-8.06-.23-4.69-5.78-8.15l-6.24-4ZM100,74.67a23.07,23.07,0,0,0,2.14,2.82l5.15-5.83a69.1,69.1,0,0,1,11-8.88c.32-.18.55-.36.87-.55,9.61-6.15,21.63-10.75,32.88-13.39,1.18-.27,2.91-.77,4.1-.91a39.74,39.74,0,0,0-3.37-6.83c-2.5.5-13.11,4.55-15.3,5.51-5.46,2.37-7,3.23-11.61,5.6l-7.56,4.6c-.59.36-1,.82-1.59,1.18-1.14.73-2,1.5-3.1,2.28C109.13,63.65,103,69.84,100,74.76ZM85,156.36a21.2,21.2,0,0,0,4.55,6.56c2.37,2.09,4.87,3.19,8.83,3.69-.36-.82-1.55-2.55-2.09-3.46-5.05-8.52-8.92-15.21-12.8-24.73a91.22,91.22,0,0,1-4.92-15.66,49.89,49.89,0,0,1-1-8.79c0-1.18-.27-1.18-.87-1.82l-3.55-4.6c-.82,1.87-.87,7.83-.82,9.93.18,8.15,2.87,17.39,5.83,24.54.55,1.27,1,2.55,1.59,3.78,1.73,3.92,3.42,6.92,5.33,10.61Zm.68-34.2-5.83-6.1a54.25,54.25,0,0,0,1.5,9.11C84,135.91,91,150.57,97,160l3.28,5.28a10.3,10.3,0,0,0,.59.91,8.2,8.2,0,0,0,1.91,2.46,16,16,0,0,0,5.42,3.92,17.42,17.42,0,0,0,4.69,1.23c.41,0,.09,0,.36,0l.23-.09a5.53,5.53,0,0,1-1.23-1.68c-.23-.32-.46-.55-.68-.87l-2.78-4.33c-.23-.36-.41-.55-.64-.91a4.54,4.54,0,0,0-.55-.87l-1.14-1.78c-1.09-2-3.1-4.87-4.37-7.1-4.74-8.38-11.61-19.67-12.25-29.23-.09-1.41,0-1-1-1.87s-2-1.87-3.05-2.91Zm131-73.68,1.23,7.42A128.81,128.81,0,0,1,219,79.68c-.55,14.12-2.64,22.27-5.83,35.7a26.69,26.69,0,0,0,4-1.18c2.41-.77,1.91-.41,2.64-3.23.87-3.42,1.68-6.74,2.5-10.15,2.73-11.75,3.92-27.23,2.14-38.84-.64-4.37-1-8.56-3.69-11.7-1.14-1.32-2-1.64-4.14-1.82ZM203.93,32.91l1.5,4.37a135.41,135.41,0,0,1,3.92,13.8,122.42,122.42,0,0,1,2.28,42c-1.23,10.06-2.64,14.43-5.33,23.86a25.85,25.85,0,0,0,4.23-.87c7.6-25.82,8.7-53.14.87-78.41-.55-1.78-1-3.14-2.14-4.28a5,5,0,0,0-5.28-.5ZM91.6,61.92a39.07,39.07,0,0,0,3.46,5.87,52.63,52.63,0,0,1,13.07-15.3c.5-.41,1.09-.91,1.55-1.23s.46-.32.73-.55c1.18-.91,5.92-4.05,7.47-4.87l3.46-1.91c3.51-1.73,7.24-3.64,10.93-5.05,4-1.5,7.47-2.87,11.61-4.14a40.86,40.86,0,0,0,4-1.27l-3.78-5c-.46-.41-1.55,0-2.19.18a68.5,68.5,0,0,0-8.79,2.6A73.44,73.44,0,0,0,125,34.69a83.87,83.87,0,0,0-7.6,4.19c-1.18.91-2.37,1.46-3.55,2.32-.32.23-.5.41-.82.64A106,106,0,0,0,94.46,58.59,32.59,32.59,0,0,0,91.6,62ZM87.18,52.4c.41-.23,4.42-4.42,5.19-5.15a110.45,110.45,0,0,1,11.16-9.47A104.87,104.87,0,0,1,132.9,22.21c.87-.32,3.05-.91,3.64-1.23l-3.14-2.91c-1.14-1-.68-.87-4.14,0-3,.73-6,1.55-8.74,2.5A80.14,80.14,0,0,0,91,37.92a70.1,70.1,0,0,0-6,6.24c-.46.59,0,1.41.18,2s.41,1.41.64,2.09C86.22,49.67,86.77,51.08,87.18,52.4ZM190.86,25c.36.82.68,1.68,1,2.6,4.78,11.61,9.29,26,11.29,38.25,2.09,13,2.6,26.09-.59,39.39a68.17,68.17,0,0,1-2,6.78l-2.32,6.1a35.31,35.31,0,0,0,5.33-.68c.91-1,3.55-12.16,4-14.3a121.58,121.58,0,0,0-4.28-64.84c-1.23-3.55-3.69-10.11-5.28-13.48a6.81,6.81,0,0,0-5.28-3.28,6.35,6.35,0,0,0-3,.82,14.92,14.92,0,0,0,1,2.69ZM149.79,8.14l2.73,3.1a7.78,7.78,0,0,0,.5.64,65.78,65.78,0,0,1,5.15,6.6l1,1.27c17,24.27,24,50,19.58,80.14a130.27,130.27,0,0,1-2.64,13.21c-.36,1.37-.91,3-1.14,4.28l4.6.59c3.28-9.93,5.46-26.14,5.33-36.52a112.44,112.44,0,0,0-4.42-30.92,108.44,108.44,0,0,0-5.05-13.62c-1.5-3.42-3.05-6.33-4.83-9.52-.32-.55-.59-1-.87-1.5a139.23,139.23,0,0,0-10-14.66c-.5-.68-4.23-5.24-4.69-5.37a4.54,4.54,0,0,0-2.23.14,6.68,6.68,0,0,0-3,2.09ZM181.94,118.2a39.35,39.35,0,0,0,4.55.27c.5,0,.46,0,.68-.55,3.55-9,5.46-20.4,5.74-29.78a121.4,121.4,0,0,0-3.32-30.87C186.54,43.61,181,29.4,175.11,17c-1-2.09-2-4.33-3.14-6.24-.77-1.37-2.87-4.42-4.55-5.33a6.94,6.94,0,0,0-4.19-.09c-1.27.41-2,1.27-2.14,3-.18,1.55.14,1.27,1.55,3.1l7,10c.27.46.59,1,.91,1.5.59,1,1.23,1.91,1.78,3a126.45,126.45,0,0,1,6.19,12.43,109.87,109.87,0,0,1,8.7,43.94c0,12.43-2.14,23.59-5.28,35.88Zm41.76,10.75c-6.42,3.6-13.48,5.15-21.13,5.65-20.86,1.32-34.83,1.68-55.6-4.33a109.05,109.05,0,0,1-24.09-9.61C112.45,115,103,108.73,94.65,100.94A103,103,0,0,1,85.4,91.2L83.76,89.1c-.87-1.18-3.23-4.19-4-5.42-.23-.41-.46-.64-.73-1l-2.73-4.55c-3.23-5.65-7.38-16-7.29-23.5-1.23,0-1.41,1.55-1.5,2.78-.18,3.46.77,5.78,1.78,8.88a58.82,58.82,0,0,0,4.42,10.47c1,1.68,4.64,8,6,9.52l2.46,3.42,8.33,9.65A135.7,135.7,0,0,0,103.25,111c14,11.34,26.68,18.44,44.62,24.5a120.38,120.38,0,0,0,44.49,5.92,120.94,120.94,0,0,0,27.78-5.74,4.64,4.64,0,0,0,2.55-1.23c1-1.14,2.64-4.23,2.23-6-.59,0-.82.23-1.37.55Zm-28-10.66c2.23-4.1,4.28-11.29,5.24-16.07a86.07,86.07,0,0,0,1.64-16.94,125.42,125.42,0,0,0-3.78-29.46c-3-12.52-8.56-27.37-14-38.93-.5-1.09-1-2-1.46-3.1-.91-2-6.47-6.24-9.47-4.23l1.46,2.87c3.37,7,6.33,13.16,9.11,20.63,9.38,25,14.66,51.18,7.38,77.77-.73,2.64-1.68,5.1-2.46,7.7Zm-129-40.62c2.28,6,3.46,7.33,6.1,11.75a75.3,75.3,0,0,0,4.64,6.47L79.07,98c11,13.16,23.91,23.91,40.8,33.38A84.83,84.83,0,0,0,130.8,137c15.21,5.87,24,8.61,41.39,10.15a158.8,158.8,0,0,0,27.09.27c2.28-.18,15-1.27,17.67-3.37a7.54,7.54,0,0,0,2.73-5.19c-7.47,2.09-14.53,4.37-23.27,4.78l-13.34.18c-16.48-.14-33.51-4.92-48.45-10.61-2.91-1.09-13.25-7.06-15.89-8.61a133.89,133.89,0,0,1-30.87-24.22c-2.19-2.28-3.32-3.82-5.19-6-.59-.68-1.09-1.41-1.64-2.09l-6-8.79a102.87,102.87,0,0,1-7-14.21c-.64-1.59-1.46-4.6-1.68-5.19s-1.82-1.5-2.37-.27c-.91,2,.14,7.74.77,8.79a33.76,33.76,0,0,1,2,5Zm6.15-30.33c-1.87,3.1-1.09,6.28-.36,9.61C74.66,67.38,79.67,76.94,85,86a22.58,22.58,0,0,0,3.32,4.51c.32.36.68.77,1,1.14,3.46,4.14,9.61,9.52,13.84,13a123.58,123.58,0,0,0,20.81,13.48,133.18,133.18,0,0,0,26.18,10.11,144.79,144.79,0,0,0,31.1,4.74,112.91,112.91,0,0,0,39.25-5.51,46.58,46.58,0,0,0,5.74-2c1.73-1.09,2.32-3.78,1.91-5.87-.5.14-.77.36-1.37.55-1.59.5-2.37,1-3.92,1.64a54.76,54.76,0,0,1-17.3,4.14c-2.23.18-4.05.55-6.24.87a119,119,0,0,1-72.95-13C115.82,108.14,107.26,100.9,99.25,93c-2.64-2.6-5-5.37-7.29-8.06a105.2,105.2,0,0,1-6.28-8.7,91.18,91.18,0,0,1-5.19-9.38,52.58,52.58,0,0,1-5.65-21.72,6.92,6.92,0,0,0-2,2.14Zm42.58,85.15c-23.18-12.89-42.53-31.87-51.64-55.28-.5-1.32-.87-3-1.55-3.51a1.62,1.62,0,0,0-1.27-.5c-1,2.28,1.37,9.33,2,11.2a91.19,91.19,0,0,0,10,18.72,110.3,110.3,0,0,0,9.84,12.52,124.31,124.31,0,0,0,53.46,34.7,113.14,113.14,0,0,0,28.73,5.6,254.65,254.65,0,0,0,27,.14c4.37-.14,8.7-.36,13.11-.55a8.38,8.38,0,0,0,3.1-.41c3-1.23,5-4.37,3.73-7a21.78,21.78,0,0,0-2.73.68,95.94,95.94,0,0,1-19.81,3c-15.76.5-25.41-2-39.93-6.06-13.39-3.73-21.81-6.51-34.11-13.34ZM130,113.05a78.6,78.6,0,0,0,11.84,5.46,116.27,116.27,0,0,0,56.92,6c1-.14,2.14-.41,3.19-.46a18,18,0,0,0,3.23-.36c2-.36,4-.77,6.06-1.27,4-1,7.83-2,11.57-3.23a24.45,24.45,0,0,0,5.19-2.41c1-.68,3-4,2.55-5.56-.64-.18-.91.14-1.37.36l-3.69,1.78c-1.64.77-3.37,1.41-5.1,2.09a79.64,79.64,0,0,1-11,3.19c-26,5.78-55.55-1.32-77.09-13.48A129.55,129.55,0,0,1,113.54,92.2,104,104,0,0,1,95.37,72.53l-4.28-6.6a82.46,82.46,0,0,1-9.7-25,18.26,18.26,0,0,0-.59-2.69c-2.55-.5-3.28,2.41-3.51,4.23.5.36.46-.18.68,1.18L78.8,48A93.3,93.3,0,0,0,94.69,83.55C104.07,96.3,115.41,105,130.07,113Z" transform="translate(-7.89 -2.89)"/><path d="M158.94,157.91c1.32.14,2.73.32,4,.36,1.5.09,1,.14,2.73,1.78a34.55,34.55,0,0,0,5.05,3.92,59.15,59.15,0,0,0,12.93,5.92c.23,1.09,0,2.91-2.19,2.5a15.69,15.69,0,0,1-3.78-1.68c-2.46-1.32-4.51-2.5-6.74-3.92C170.28,166.33,159.58,159,158.94,157.91Zm-16.07-3.1c2.82.55,5.6,1.41,9.15,2l1.59.27c.77.14.64.09,1.14.55,2.23,2,4.87,4,7.33,5.83,4.46,3.28,11.43,8.15,16.57,10.34-.41,2.28-1.68,3.64-3.87,3.55-2.73-.09-4.19-1.18-6-2.37a218,218,0,0,1-18.21-12.89c-1.78-1.46-7.06-5.92-7.83-7.29Zm25,3.82,7.19.23c1.91,0,1.55-.18,3.14.73,4.28,2.5,10.43,5.74,15.53,6.69-2.14,6.28-16.62-1.14-20.72-3.55a33.7,33.7,0,0,1-2.82-1.87L168,159c-.27-.41,0,.46-.09-.23a.46.46,0,0,1,0-.14Zm-36.47-7.38c2.14.59,4.28,1.5,6.47,2.19,1.59.5.91.32,2.14,1.78,8.74,10.29,28.6,22.13,29,22.68-1.32,2-3.14,2.37-5.87,1-2.5-1.27-12.7-9.2-14.94-11-3.19-2.55-6.42-5.19-9.15-7.83-1.87-1.78-7.19-7.1-7.65-8.83Zm50,7.56,13.3-.46c1.46,0,3-.23,4.37-.18.64,1.18.5,4.33-.73,5.28-3.73,2.91-13.84-3.32-17-4.69ZM115.68,144.2l6.65,3.23c1.18.55,2.32,1,3.51,1.55.59.23,1.27.5,1.87.77.77.36,1.23,2.23,2.09,3.42.23.32.32.36.5.64a50.65,50.65,0,0,0,6.6,7.38c2.37,2.32,7.56,6.74,10.34,8.83,1.82,1.37,3.55,2.82,5.46,4.23l5.6,4.14a22.28,22.28,0,0,1-8.61-.82c-2.41-.68-5.69-1.82-7.38-3.19a151.54,151.54,0,0,1-18.62-17.53,6.12,6.12,0,0,1-.5-.64l-5.42-7.51a20.8,20.8,0,0,1-2.14-4.55Zm-12.43-7.51,6.24,4c5.56,3.46,1.64.09,5.78,8.15.55,1,1.18,2,1.73,2.91,1.41,2.46,6.65,8.47,8.61,10.47,3.32,3.37,6.33,6.28,10,9.43l5.42,4.55c-.5,3.69-4.19,3-7.29,1.87-1.82-.64-4.6-3.51-6-4.83-1.91-1.78-3.6-3.42-5.33-5.28A105.47,105.47,0,0,1,113,156.54l-2-3.05c-2.69-4.28-6.74-12.07-7.74-16.85ZM92.51,128.4l7.42,5.83c.59.46.59,1,.77,1.68a71,71,0,0,0,8.15,18.26l2,3a8.31,8.31,0,0,0,.59.73l2.64,3.64c.59.87,1.64,2,2.37,2.87,1.55,2,5.51,6.15,7.38,8l2.69,2.64c-2,2.78-5.51,2-8,.46a6.44,6.44,0,0,1-2.87-2.73c-.73-1.14-1.46-2-2.19-3.14-2.78-4.19-5.6-8.42-8.24-12.89C101,149.66,97.74,144,94.69,136.28c-.55-1.37-2.23-6.28-2.14-7.79ZM80.07,116.15l5.83,6.1c1,1,2,1.91,3.05,2.91s.87.5,1,1.87c.64,9.56,7.56,20.86,12.25,29.23,1.27,2.23,3.28,5.15,4.37,7.1l1.14,1.78a4.54,4.54,0,0,1,.55.87c.23.36.41.55.64.91l2.78,4.33c.23.32.46.55.68.87.32.5.68,1.37,1.23,1.68l-.23.09c-.27,0,0,0-.36,0a15.89,15.89,0,0,1-4.69-1.23,16.42,16.42,0,0,1-5.42-3.92,8.8,8.8,0,0,1-1.91-2.46c-.27-.41-.36-.55-.59-.91l-3.28-5.28c-6-9.43-12.93-24.09-15.57-34.83A54.25,54.25,0,0,1,80,116.2Zm-6.83-8.56,3.55,4.6c.59.68.87.68.87,1.82a49.89,49.89,0,0,0,1,8.79,87.4,87.4,0,0,0,4.92,15.66c3.87,9.56,7.79,16.26,12.8,24.73.55.91,1.73,2.64,2.09,3.46A15.24,15.24,0,0,1,89.68,163a22.87,22.87,0,0,1-4.55-6.56c-2-3.69-3.6-6.69-5.33-10.61-.55-1.23-1.09-2.5-1.59-3.78-3-7.15-5.6-16.44-5.83-24.54,0-2.09,0-8.06.82-9.93ZM67.6,99.12,69.47,102c2.78,4.6,2,1.18,1.14,7.56-1.55,11.38,1.46,23.31,5.74,33.56,1.64,4,3.23,7.33,5.19,11.16a13.76,13.76,0,0,1,.82,1.64c-7.6-3.19-11.38-17.67-12.89-24.82-.23-1.09-.41-2.64-.73-3.64-2-6.37-2.28-12.7-2-19.44.09-2,.32-7.19.87-8.92ZM62.36,88.83l2.87,5.83c.68,1.23.32,1.68,0,3.78a107.23,107.23,0,0,0-1,16.21,36.22,36.22,0,0,1,.14,3.82C63,116.2,61,108,60.59,105c-.64-4.6-.64-11.61,1.73-16.21ZM110,85.78a18.57,18.57,0,0,1,2.78-1.64c.82-.41,2.19-1.23,3-1.5l2.14,3.87c2,3.6,3.55,6.06,5.69,9.43a11,11,0,0,1,1.23,1.87c-2.41-1.09-13.8-10.52-14.8-12ZM61.18,73.39a1.37,1.37,0,0,1,1.27.5c.64.5,1,2.19,1.55,3.51,9.11,23.41,28.51,42.39,51.64,55.28,12.29,6.83,20.67,9.61,34.11,13.34,14.53,4.05,24.18,6.51,39.93,6.06a90.17,90.17,0,0,0,19.81-3,21.78,21.78,0,0,1,2.73-.68c1.23,2.55-.73,5.74-3.73,7a8.24,8.24,0,0,1-3.1.41c-4.42.18-8.74.41-13.11.55a254.71,254.71,0,0,1-27-.14,113.14,113.14,0,0,1-28.73-5.6,124.31,124.31,0,0,1-53.46-34.7,115.68,115.68,0,0,1-9.84-12.52,89,89,0,0,1-10-18.72c-.73-1.87-3.1-8.92-2-11.2Zm56.92,8.06a26.38,26.38,0,0,1,4.23-1.82c1,1.23,1.87,2.55,2.78,3.78s1.82,2.5,2.78,3.78l4.23,5.65c4.37,5.56,7.24,9.2,12.07,14.57a14.25,14.25,0,0,1,1.59,1.82c-2-.73-13.16-6-14.71-7.51a12.25,12.25,0,0,1-1.5-1.87c-.5-.68-1-1.27-1.5-2a100.05,100.05,0,0,1-7.65-12.07,33.12,33.12,0,0,1-2.23-4.37Zm6.6-2.82a20.49,20.49,0,0,1,4-1.55c1.41,3,4.19,6.15,6,8.83a84.87,84.87,0,0,0,7.15,8.24,97.41,97.41,0,0,0,12.89,11,38.59,38.59,0,0,0,5,3.23,38.46,38.46,0,0,1-1.37,5.37c-1.46-.23-6-1.73-7-2.6-1.64-1.41-3-2.78-4.37-4.23-6.19-6.42-15.21-18.21-20.54-25.77A11.22,11.22,0,0,1,124.7,78.63ZM219.91,139a7.28,7.28,0,0,1-2.73,5.19c-2.64,2-15.39,3.19-17.67,3.37a158.8,158.8,0,0,1-27.09-.27C155.12,145.7,146.28,143,131,137.1a87.91,87.91,0,0,1-10.93-5.6C103.25,122,90.32,111.23,79.3,98.12L77.62,96A75.3,75.3,0,0,1,73,89.56c-2.64-4.42-3.82-5.83-6.1-11.75a47.78,47.78,0,0,0-2-5c-.64-1-1.68-6.83-.77-8.79.55-1.23,2.14-.32,2.37.27s1,3.64,1.68,5.19a102.87,102.87,0,0,0,7,14.21l6,8.79c.55.68,1,1.41,1.64,2.09,1.91,2.19,3,3.73,5.19,6a133.89,133.89,0,0,0,30.87,24.22c2.64,1.55,13,7.51,15.89,8.61,15,5.69,32,10.47,48.45,10.61l13.34-.18c8.74-.46,15.8-2.69,23.27-4.78ZM131,76.22c1-.64,4.42-1.41,5.74-2A15.25,15.25,0,0,1,138,76.17l3.69,5.69a67,67,0,0,0,5.69,7.1c2.87,3.14,9.84,10.25,13.66,12.75l-.82,4.14a43.33,43.33,0,0,1-4.64-3.1,90.3,90.3,0,0,1-18.85-18.12c-1-1.32-5.24-7.19-5.69-8.42ZM145.33,72l3.6,5.51c1,1.46,2.87,3.78,3.92,5.19a57,57,0,0,0,4.46,5,60.1,60.1,0,0,0,5,4.46,53,53,0,0,1-.91,6.78A32,32,0,0,1,158,96.11a91.58,91.58,0,0,1-14.25-15.53c-.73-1-4.28-6.1-4.42-7.1l6-1.5Zm8.2-1.68c.59.64,2.14,5.28,6.19,9.06,3.37,3.1,3.14,1.41,3.1,4.23,0,.64,0,1.23,0,1.91a24.84,24.84,0,0,1-.27,3.73c-2.32-1.5-6.28-6.19-8.11-8.38-1.18-1.41-2.41-3.1-3.46-4.64-.55-.82-2.87-4.1-3-4.83l5.6-1ZM69.42,54.63c-.14,7.51,4.05,17.85,7.29,23.5l2.73,4.55c.27.41.46.64.73,1,.68,1.18,3.1,4.23,4,5.42l1.64,2.09A103,103,0,0,0,95,101a134.85,134.85,0,0,0,28.23,19.72,106.88,106.88,0,0,0,24.09,9.61c20.76,6,34.74,5.65,55.6,4.33,7.6-.5,14.71-2,21.13-5.65.5-.27.73-.55,1.37-.55.41,1.78-1.18,4.83-2.23,6-.77.87-1.37.87-2.55,1.23a120.94,120.94,0,0,1-27.78,5.74,119.19,119.19,0,0,1-44.49-5.92c-17.94-6.06-30.65-13.16-44.62-24.5A129.82,129.82,0,0,1,91,99.21l-8.33-9.65-2.46-3.42a110.93,110.93,0,0,1-6-9.52,57.43,57.43,0,0,1-4.42-10.47c-1-3.1-2-5.42-1.78-8.88,0-1.27.27-2.73,1.5-2.78ZM156,69.84a56.5,56.5,0,0,1,6.06-.77c.41,1,.91,8.47.82,10-2.37-1.41-6.33-6.92-6.88-9.24Zm-49.5,12.39a15.34,15.34,0,0,1,2.64-2.5c4.19-3.51,10.15-6.47,15.35-8.56,9.15-3.64,19-6,28.73-7.92,1.5-.32,6.37-1.23,7.65-1.32.18,1.27,1,3.78.91,5A136.39,136.39,0,0,0,147,69.34c-4.87,1.09-9.33,2.32-13.8,3.73a126.34,126.34,0,0,0-19,7.83c-.55.27-1,.5-1.5.82-.87.41-4,2.23-4.46,2.32a11.22,11.22,0,0,1-1.73-1.87ZM75,45.39c.14,8,2.73,15.66,5.65,21.72a90.28,90.28,0,0,0,5.19,9.38,105.2,105.2,0,0,0,6.28,8.7c2.28,2.64,4.64,5.42,7.29,8.06,8,7.88,16.57,15.12,27.09,20.76a119.39,119.39,0,0,0,72.95,13c2.19-.32,4-.64,6.24-.87A56,56,0,0,0,223,122c1.55-.59,2.32-1.14,3.92-1.64.59-.18.87-.41,1.37-.55.46,2-.18,4.78-1.91,5.87a55.62,55.62,0,0,1-5.74,2,114,114,0,0,1-39.25,5.51,144.36,144.36,0,0,1-31.1-4.74,132.08,132.08,0,0,1-26.18-10.11,126.47,126.47,0,0,1-20.81-13.48c-4.23-3.46-10.43-8.83-13.84-13-.27-.36-.64-.77-1-1.14a24,24,0,0,1-3.32-4.51c-5.33-9.06-10.34-18.62-12.57-29.05-.73-3.37-1.46-6.51.36-9.61a6.92,6.92,0,0,1,2-2.14ZM122.7,69.57a33.58,33.58,0,0,1,4.1-2.55l4.14-2.28a113.43,113.43,0,0,1,23.13-8.61,35.75,35.75,0,0,1,5-1.14l1.27,4.74a35,35,0,0,1-5,1c-8.92,1.64-19.85,4.14-28.23,7.19l-4.42,1.64Zm99.54,43c.18-1.37,1-3.64,1.32-5.15.46-1.82.87-3.64,1.27-5.46.82-3.69,1.46-7.42,2-11.16A126.5,126.5,0,0,0,228,75.4c0-1.41-.18-3.46,0-4.74,2.09,1.55,3.69,5.92,4.19,9.29a46.58,46.58,0,0,1,0,12.07A70.33,70.33,0,0,1,228.2,108c-1,2.64-.32,2.23-3.6,3.64-.73.32-1.68.64-2.32,1ZM77.57,42.7c.23-1.82,1-4.74,3.51-4.23a18.26,18.26,0,0,1,.59,2.69,84.89,84.89,0,0,0,9.7,25l4.28,6.6a106.91,106.91,0,0,0,18.17,19.67,126,126,0,0,0,18.76,12.93c21.54,12.16,51.09,19.26,77.09,13.48a79.64,79.64,0,0,0,11-3.19c1.73-.68,3.46-1.32,5.1-2.09l3.69-1.78c.46-.23.73-.55,1.37-.36.36,1.55-1.64,4.87-2.55,5.56a25.53,25.53,0,0,1-5.19,2.41,116.72,116.72,0,0,1-11.57,3.23c-2,.5-4,.91-6.06,1.27a23.37,23.37,0,0,1-3.23.36c-1,0-2.19.32-3.19.46a116.27,116.27,0,0,1-56.92-6,76.27,76.27,0,0,1-11.84-5.46c-14.66-8.06-26-16.71-35.38-29.46A93.3,93.3,0,0,1,79,48.3l-.82-4.37c-.18-1.37-.18-.82-.68-1.18Zm26.32,36.84c1-2.46,8.15-9.15,10.61-11.11a74.12,74.12,0,0,1,9.43-6.33l3.32-1.82c6-3.23,15.39-6.56,21.95-8.29,1.78-.46,6.37-1.73,8-2l1,3c-2.37.14-13.11,3.51-15.25,4.28-7.38,2.64-17.39,7.19-23.59,11.79l-4.46,3.28c-1.23.91-3.23,2.82-4.28,3.51l-5.74,4.69a11.36,11.36,0,0,1-1-1Zm-3.69-4.69c3.05-4.92,9.15-11.11,13.62-14.48,1-.77,2-1.55,3.1-2.28.55-.36,1-.82,1.59-1.18l7.56-4.6c4.6-2.37,6.15-3.23,11.61-5.6,2.19-1,12.8-5,15.3-5.51A41.46,41.46,0,0,1,156.35,48c-1.18.14-2.87.64-4.1.91C141,51.58,129,56.18,119.37,62.33a9.07,9.07,0,0,1-.87.55,67.13,67.13,0,0,0-11,8.88l-5.15,5.83a23.07,23.07,0,0,1-2.14-2.82ZM96.7,70.16c.77-2.14,3.23-5.56,4.55-7.29,3.51-4.6,6-6.37,10-9.7a81.8,81.8,0,0,1,9.93-6.47c.59-.27,1.14-.59,1.78-1a119.25,119.25,0,0,1,11-5c1.78-.68,13.75-5.19,15.71-5.28.32.73,2.09,3.14,2.28,3.73-.46.27-3.19,1.09-3.92,1.32-9.33,3.14-22.49,8.74-30.69,14.62-.55.36-1.14.68-1.64,1.09-2.23,1.78-3.64,2.64-6.1,4.83a65.06,65.06,0,0,0-5.69,5.56c-.91,1-1.78,2-2.64,3.05a32.35,32.35,0,0,1-2.46,3.19,29.36,29.36,0,0,1-2-2.78Zm116.75,45.4c3.19-13.43,5.28-21.63,5.83-35.7a125,125,0,0,0-1.14-23.77l-1.23-7.42c2.19.18,3,.5,4.14,1.82,2.73,3.14,3,7.33,3.69,11.7,1.73,11.61.59,27-2.14,38.84-.77,3.42-1.59,6.74-2.5,10.15-.73,2.78-.27,2.41-2.64,3.23a31.06,31.06,0,0,1-4,1.18ZM91.82,62.05a32.59,32.59,0,0,1,2.87-3.42,106.19,106.19,0,0,1,18.53-16.76c.32-.23.5-.41.82-.64,1.18-.87,2.37-1.41,3.55-2.32s6.06-3.42,7.6-4.19a73.44,73.44,0,0,1,8.11-3.42,79.49,79.49,0,0,1,8.79-2.6c.64-.14,1.73-.55,2.19-.18l3.78,5a40.86,40.86,0,0,1-4,1.27c-4.14,1.27-7.65,2.64-11.61,4.14A119.69,119.69,0,0,0,121.56,44l-3.46,1.91c-1.55.82-6.28,4-7.47,4.87-.32.23-.36.32-.73.55s-1,.82-1.55,1.23a50.82,50.82,0,0,0-13.07,15.3A43.34,43.34,0,0,1,91.82,62Zm-1.14-2.28a30.47,30.47,0,0,1-1.87-3.87c-.5-1.09-.14-1,.64-1.87,2.41-2.64,5.24-5.42,7.83-7.74a119.48,119.48,0,0,1,13.8-10.66,105.27,105.27,0,0,1,26.18-12.2c1-.27,1.41-.68,2-.09a26.44,26.44,0,0,1,2.91,3.19,77.14,77.14,0,0,0-15.39,5.05C112.45,38.06,100.47,48,90.68,59.82ZM204.2,33a4.87,4.87,0,0,1,5.28.5c1.23,1.14,1.64,2.55,2.14,4.28,7.83,25.27,6.74,52.59-.87,78.41a25.85,25.85,0,0,1-4.23.87c2.69-9.43,4.1-13.84,5.33-23.86a120.2,120.2,0,0,0-2.28-42c-1-4.14-2.5-9.74-3.92-13.8l-1.5-4.37ZM87.45,52.49c-.41-1.32-1-2.69-1.41-4.1-.23-.68-.41-1.37-.64-2.09s-.64-1.46-.18-2a70.1,70.1,0,0,1,6-6.24,80.88,80.88,0,0,1,29.55-17.39c2.78-1,5.74-1.78,8.74-2.5,3.51-.82,3-1,4.14,0l3.14,2.91a28.35,28.35,0,0,1-3.64,1.23A104.25,104.25,0,0,0,103.8,37.87a116.69,116.69,0,0,0-11.16,9.47C91.87,48.07,87.86,52.26,87.45,52.49ZM84.22,41.61c-1-4.28-1.14-3.37,1.5-7,4.55-6.19,10-10.34,16.48-14,7.51-4.28,14.8-6.06,23.31-7.88,1.09-.23,1-.32,1.87.36a32,32,0,0,0,3,2.23l-.5.27c-.09,0-.27,0-.41.09l-2.64.64c-1.14.27-2.28.59-3.37.91-2.23.68-4.42,1.37-6.51,2.19-3.69,1.46-11.84,5.1-15.07,7.38-1,.68-1.78,1.09-2.78,1.78a87.57,87.57,0,0,0-10.2,8.24l-4.69,4.74ZM190.13,22.44a6,6,0,0,1,3-.82,6.73,6.73,0,0,1,5.28,3.28c1.59,3.37,4.05,9.93,5.28,13.48a121.55,121.55,0,0,1,4.28,64.84c-.46,2.14-3.1,13.3-4,14.3a30.3,30.3,0,0,1-5.33.68l2.32-6.1a68.17,68.17,0,0,0,2-6.78c3.19-13.3,2.69-26.36.59-39.39-2-12.29-6.51-26.68-11.29-38.25-.36-.91-.73-1.73-1-2.6a19.3,19.3,0,0,1-1-2.69ZM139.77,8.23a4.11,4.11,0,0,1,5-2.32c1,.32,5.51,5.74,6.24,6.65.18.23.36.36.59.64l1.18,1.41c2.37,3,4.92,6.33,7,9.47.18.27.32.36.5.64s.27.5.46.77l2.87,4.6a104.67,104.67,0,0,1,9.15,19.81c7.06,19.94,7.24,43.62.41,67.26-1.46.18-10.29-2.09-12.2-2.6a39.14,39.14,0,0,1,1-4.19c.73-3.05,1.91-10.25,2.32-13.3a117.24,117.24,0,0,0,1-16.35C165,65.92,161.45,50,153.43,37.46c-.64-1-1.09-1.87-1.78-2.78l-2.82-4.05c-.36-.46-.68-.82-1-1.27-3.82-4.46-4-5-9.06-9.84a103.66,103.66,0,0,0-10-8.24c-.36-.27-.46-.27-.59-.59a3.21,3.21,0,0,1,2-3.19,11.85,11.85,0,0,1,4.05-.82c1.68.09,9.47,8.7,10.79,10.2l2.32,2.87c5.92,7.06,12.16,19,16,28.55a142.77,142.77,0,0,1,4.87,14.07c3.69,14,.23,39-2.19,53.23l2.14.32c.5-1.09,1.18-7.1,1.41-8.74.41-2.82.77-5.69,1.09-8.52,1.14-10.06,2-22,.68-31.92-1-7.1-5.74-19.31-8.74-25.82-1-2-1.91-4-2.91-6-2.46-4.78-4.14-7.15-6.78-11.43l-4-5.37a93.22,93.22,0,0,0-7.88-8.65,15.65,15.65,0,0,1-1.23-1.23Zm10.29,0a6.68,6.68,0,0,1,3-2.09A5.16,5.16,0,0,1,155.3,6c.46.14,4.14,4.74,4.69,5.37A139.23,139.23,0,0,1,170,26c.27.55.55,1,.87,1.5,1.78,3.19,3.32,6.1,4.83,9.52a101.76,101.76,0,0,1,5.05,13.62,110.49,110.49,0,0,1,4.42,30.92c.09,10.38-2,26.59-5.33,36.52l-4.6-.59c.23-1.32.77-3,1.14-4.28A130.27,130.27,0,0,0,179,100c4.42-30.24-2.6-55.87-19.58-80.14l-1-1.27a65.78,65.78,0,0,0-5.15-6.6c-.23-.27-.27-.36-.5-.64L150,8.28Zm32.15,110.06c3.14-12.29,5.24-23.41,5.28-35.88a109.87,109.87,0,0,0-8.7-43.94A137.44,137.44,0,0,0,172.6,26c-.55-1.09-1.23-2-1.78-3a16.47,16.47,0,0,0-.91-1.5l-7-10c-1.41-1.82-1.78-1.55-1.55-3.1.23-1.73.87-2.6,2.14-3a7.3,7.3,0,0,1,4.19.09c1.68.91,3.78,4,4.55,5.33,1.09,1.91,2.14,4.14,3.14,6.24,5.87,12.34,11.43,26.59,14.48,40.25a125.65,125.65,0,0,1,3.32,30.87c-.27,9.38-2.19,20.81-5.74,29.78-.23.55-.14.5-.68.55a39.35,39.35,0,0,1-4.55-.27Zm-8-108.65c3-2,8.56,2.19,9.47,4.23.46,1,1,2,1.46,3.1,5.42,11.57,11,26.41,14,38.93a123.07,123.07,0,0,1,3.78,29.46,89.31,89.31,0,0,1-1.64,16.94c-1,4.78-3,12-5.24,16.07l-6.33.23c.77-2.6,1.73-5.05,2.46-7.7,7.29-26.59,2-52.73-7.38-77.77C182,25.72,179,19.52,175.65,12.51Zm-14.89-3c-.87-.41-1.78-2.64-3-2.82l-.82-.14a8,8,0,0,0-6.83,2.55C147,4.72,147,3.9,144.37,3.45c-3-.5-4.78,1.14-6.37,3-.77-.68-2-2-3.14-2.14-2.37-.27-6.06.73-7.6,2.23-.64.64-2,2.46-1.59,3.82l-3.37.68a55.36,55.36,0,0,0-6.69,1.68c-1.09.36-2.14.59-3.23,1a65,65,0,0,0-6.1,2.32,62.09,62.09,0,0,0-5.78,2.87l-1.32.73a24.53,24.53,0,0,0-2.73,1.68c-1.23,1-2.64,1.82-3.82,2.82a50.68,50.68,0,0,0-6.92,6.69c-.68.87-1.46,1.73-2,2.6-.36.5-.64.87-1,1.37s-.64,1-1,1.37a4.36,4.36,0,0,0-4.6,1.46c-1.18,1.41-1.46,2.82-1.91,5.15C72.88,43,70.38,47,70,49.12L69.6,51c-.14.68,0,.77-.14,1.41-2.14-.32-3.32,2.09-3.64,3.78s0,3.42.09,5.05c-5.51-1-4.64,7.1-3.87,9.79-5-.87-3.42,6.92-2.82,9L61,86c-.09.55-1.91,4.1-2.6,7.7a35.53,35.53,0,0,0,0,12.43,56.85,56.85,0,0,0,3.78,13c1,2.46,2.14,4.87,3.32,7.24a6.87,6.87,0,0,1,1,2.41l.55,2.82c1.18,5.56,3.1,13,6,17.8a25.25,25.25,0,0,0,4.78,6.28,13.62,13.62,0,0,0,5,3c2,.59,1.32.5,2.69,2.82,2,3.55,6.47,6.37,10.88,7.15l2.14.36c.73.09,1.59-.09,2.09.5a18,18,0,0,0,12.89,6.69c2,.18,1.41-.27,3.19.91,3.55,2.37,8.56,3.32,11.57-.27,2,.82,1.91,3.19,8,4.23,3,.5,6.56-.27,7.15-3.42.64.14,3.14,1.27,4,1.55a25.85,25.85,0,0,0,12.84,1.23c.77-.18.73-.18,1.32.18,2.78,1.64,6.51,2.14,8.88-.36.46-.5.68-.91,1.09-1.41a10,10,0,0,0,5.15.5c3.05-.68,3.55-2.64,4.51-4.64,3.28.55,4.78-1.14,5.33-4,2.64.46,4.78.73,7.1-.5a6.75,6.75,0,0,0,3-3.69,5.74,5.74,0,0,0,4.74-2.46,6.82,6.82,0,0,0,.87-4.42,6.14,6.14,0,0,1-.09-1.59,42.07,42.07,0,0,0,6.33-.27,9.27,9.27,0,0,0,5.74-4.23c2-3.23.59-5.28.68-6.19A6.29,6.29,0,0,0,216,147a8.58,8.58,0,0,0,3.37-1.78,10.55,10.55,0,0,0,2.87-5.87c.18-1-.14-1.23-.18-2,2.19-.09,4.92-4.1,5.46-6.65a6,6,0,0,0,0-3.23c2.69-1.09,3.69-5.37,3.23-8-.18-1-.73-1.23,0-2a10.5,10.5,0,0,0,2.55-5.24c.41-2.09-1-3.32-3-3.23a26.61,26.61,0,0,1,.91-2.69c.32-1,.55-1.87.91-2.87a58.49,58.49,0,0,0,2.69-14.75c.46-7,0-15.57-6-20.45-.5-.41-.91-.55-1-1.23a64.37,64.37,0,0,0-2.14-13.57c-.82-2.64-3.23-6.51-6.56-7.1a7.23,7.23,0,0,0-2.6-.18c-.59-1.82-.91-3.82-1.46-5.69s-1-3.78-1.73-5.56c-1.55-4.1-4.92-6.37-10-4.33a71.45,71.45,0,0,0-2.78-6.69c-1.55-3.32-6.51-5.74-10.34-4.14a6.55,6.55,0,0,1-1.09.41,59.93,59.93,0,0,0-3.1-6.83,8.56,8.56,0,0,0-3.64-4.1,12,12,0,0,0-5.69-2.46,6.52,6.52,0,0,0-3.87.77A12.19,12.19,0,0,0,170.78,5a7.05,7.05,0,0,0-3.37-2c-3.23-.55-7.51.32-8.15,3.64Z" transform="translate(-7.89 -2.89)"/><path class="cls-3" d="M208.65,105.27c.41.46.68.82,1,1.27l2.82,4.05c.68.91,1.14,1.78,1.78,2.78,8,12.57,11.61,28.46,11.79,43.26A116.36,116.36,0,0,1,225,173c-.41,3-1.59,10.2-2.32,13.3a39.14,39.14,0,0,0-1,4.19c2,.5,10.79,2.78,12.2,2.6,6.83-23.63,6.65-47.31-.41-67.26A109,109,0,0,0,224.4,106l-2.87-4.6c-.18-.32-.27-.5-.46-.77s-.32-.36-.5-.64c-2-3.14-4.6-6.47-7-9.47l-1.18-1.41a8.14,8.14,0,0,1-.59-.64c-.73-.91-5.19-6.33-6.24-6.65a4.23,4.23,0,0,0-5,2.32,15.65,15.65,0,0,0,1.23,1.23A107.29,107.29,0,0,1,209.74,94l4,5.37a124.09,124.09,0,0,1,6.78,11.43c1,2,2,3.87,2.91,6,3,6.51,7.79,18.76,8.74,25.82,1.37,9.88.46,21.86-.68,31.92-.32,2.82-.68,5.69-1.09,8.52-.23,1.59-1,7.65-1.41,8.74l-2.14-.32c2.41-14.25,5.87-39.25,2.19-53.23-1-3.82-3.37-10.29-4.87-14.07-3.82-9.56-10.06-21.49-16-28.55l-2.32-2.87c-1.32-1.5-9.11-10.11-10.79-10.2a11.85,11.85,0,0,0-4.05.82,3.25,3.25,0,0,0-2,3.19,1.81,1.81,0,0,0,.59.59,103.66,103.66,0,0,1,10,8.24c5.1,4.83,5.24,5.37,9.06,9.84Zm8.24,40.53c.59,2.32,4.51,7.83,6.88,9.24.09-1.5-.41-9-.82-10a56.5,56.5,0,0,0-6.06.77Zm-45.95,15.94c1,1.46,12.39,10.93,14.8,12a8.78,8.78,0,0,0-1.23-1.87c-2.14-3.37-3.69-5.83-5.69-9.43l-2.14-3.87a25.81,25.81,0,0,0-3,1.5,18.57,18.57,0,0,0-2.78,1.64Zm49,72.13c.64,1.14,11.34,8.42,12,8.88,2.23,1.41,4.28,2.64,6.74,3.92a17.69,17.69,0,0,0,3.78,1.68c2.23.41,2.46-1.41,2.19-2.5a59.15,59.15,0,0,1-12.93-5.92,34.55,34.55,0,0,1-5.05-3.92c-1.68-1.64-1.23-1.68-2.73-1.78C222.58,234.13,221.22,234,219.9,233.86Zm22.49.91c3.14,1.37,13.25,7.6,17,4.69,1.23-1,1.37-4.1.73-5.28-1.37,0-3,.14-4.37.18l-13.3.46Zm-119.12-70c-2.41,4.6-2.37,11.61-1.73,16.21.41,3,2.41,11.11,3.87,13.43,0-1.14-.14-2.64-.14-3.82a107.58,107.58,0,0,1,1-16.21c.27-2.09.64-2.55,0-3.78l-2.87-5.83Zm85.52-17.39c.14.77,2.46,4,3,4.83,1,1.55,2.28,3.23,3.46,4.64,1.82,2.14,5.78,6.88,8.11,8.38a24.4,24.4,0,0,0,.27-3.73c0-.64,0-1.27,0-1.91,0-2.82.27-1.09-3.1-4.23-4.05-3.73-5.56-8.38-6.19-9.06l-5.6,1Zm20.08,87.25a.46.46,0,0,1,0,.14c0,.68-.18-.18.09.23l2.28,1.82c.87.64,1.87,1.27,2.82,1.87,4.1,2.46,18.58,9.84,20.72,3.55-5.05-1-11.2-4.23-15.53-6.69-1.55-.91-1.23-.68-3.14-.73l-7.19-.23Zm-45.31-89.11,4.42-1.64c8.38-3.05,19.31-5.56,28.23-7.19a35,35,0,0,0,5-1L219.94,131a37.26,37.26,0,0,0-5,1.14,114.43,114.43,0,0,0-23.13,8.61L187.66,143a31.61,31.61,0,0,0-4.1,2.55Zm8.83,81.69c.46,1.78,5.78,7.06,7.65,8.83,2.73,2.64,6,5.28,9.15,7.83,2.23,1.78,12.43,9.7,14.94,11,2.73,1.37,4.55,1,5.87-1-.41-.55-20.22-12.39-29-22.68-1.23-1.46-.55-1.32-2.14-1.78-2.19-.68-4.37-1.55-6.47-2.19Zm7.83-77.73c.14,1,3.69,6.1,4.42,7.1a89.89,89.89,0,0,0,14.25,15.53,33,33,0,0,0,3.42,2.82,53,53,0,0,0,.91-6.78,53.6,53.6,0,0,1-5-4.46,64.55,64.55,0,0,1-4.46-5c-1-1.41-3-3.73-3.92-5.19l-3.6-5.51-6,1.5Zm-57.78,80.78c-2-3.78-3.55-7.15-5.19-11.16-4.23-10.29-7.29-22.18-5.74-33.56.87-6.33,1.68-3-1.14-7.56l-1.87-2.91c-.55,1.73-.77,6.92-.87,8.92-.32,6.74-.14,13.07,2,19.44.32,1,.5,2.55.73,3.64,1.5,7.15,5.28,21.63,12.89,24.82a11,11,0,0,0-.82-1.64ZM283.1,188.51c.64-.32,1.59-.64,2.32-1,3.28-1.41,2.64-1,3.6-3.64A68,68,0,0,0,292.94,168a44.65,44.65,0,0,0,0-12.07c-.5-3.32-2-7.7-4.19-9.29-.14,1.27,0,3.32,0,4.74a118,118,0,0,1-1.18,15.44c-.5,3.73-1.18,7.47-2,11.16-.41,1.82-.82,3.64-1.27,5.46-.36,1.46-1.14,3.73-1.32,5.15ZM179,157.41a36.18,36.18,0,0,0,2.23,4.37,103.76,103.76,0,0,0,7.65,12.07c.5.68,1,1.27,1.5,2a12.25,12.25,0,0,0,1.5,1.87c1.55,1.46,12.7,6.78,14.71,7.51-.32-.5-1.09-1.23-1.59-1.82-4.83-5.37-7.7-9-12.07-14.57l-4.23-5.65c-1-1.27-1.82-2.46-2.78-3.78s-1.78-2.55-2.78-3.78a42.36,42.36,0,0,0-4.23,1.82Zm-14.25-2c.41.32.64.77,1,1l5.74-4.69c1-.68,3.1-2.55,4.28-3.51l4.46-3.28c6.15-4.55,16.17-9.11,23.59-11.79,2.09-.77,12.89-4.14,15.25-4.28l-1-3c-1.64.23-6.19,1.5-8,2a117,117,0,0,0-21.95,8.29L184.83,138a68.18,68.18,0,0,0-9.43,6.33c-2.46,1.91-9.61,8.61-10.61,11.11Zm27.14-3.23c.41,1.23,4.64,7.1,5.69,8.42a88,88,0,0,0,18.85,18.12,39.21,39.21,0,0,0,4.64,3.1l.82-4.14c-3.82-2.5-10.79-9.61-13.66-12.75a72,72,0,0,1-5.69-7.1l-3.69-5.69a15.25,15.25,0,0,0-1.18-1.91c-1.37.5-4.78,1.32-5.74,2Zm11.88,78.55c.73,1.37,6,5.87,7.83,7.29a210.73,210.73,0,0,0,18.21,12.89c1.78,1.14,3.23,2.28,6,2.37,2.23,0,3.46-1.27,3.87-3.55-5.15-2.19-12.11-7.06-16.57-10.34-2.5-1.82-5.1-3.87-7.33-5.83-.55-.46-.36-.41-1.14-.55l-1.59-.27c-3.6-.59-6.33-1.46-9.15-2Zm-18.21-76.18a12.36,12.36,0,0,0,1.73,2.5c5.33,7.56,14.34,19.35,20.54,25.77,1.46,1.5,2.78,2.87,4.37,4.23,1,.87,5.51,2.37,7,2.6a38.46,38.46,0,0,0,1.37-5.37,57.84,57.84,0,0,1-5-3.23,94.11,94.11,0,0,1-12.89-11,79.07,79.07,0,0,1-7.15-8.24c-1.82-2.73-4.6-5.87-6-8.83A16,16,0,0,0,185.56,154.54ZM145,117.47l4.69-4.74a86.68,86.68,0,0,1,10.2-8.24c1-.68,1.82-1.09,2.78-1.78,3.19-2.28,11.34-5.92,15.07-7.38,2.09-.82,4.28-1.5,6.51-2.19,1.09-.32,2.23-.64,3.37-.91l2.64-.64c.14,0,.27,0,.41-.09l.5-.27c-.87-.5-2.09-1.55-3-2.23s-.77-.59-1.87-.36c-8.52,1.78-15.8,3.6-23.31,7.88-6.47,3.69-11.88,7.83-16.48,14-2.64,3.55-2.46,2.64-1.5,7Zm6.47,18.12c9.79-11.79,21.77-21.77,36.16-28.23A76.19,76.19,0,0,1,203,102.31a22.87,22.87,0,0,0-2.91-3.19c-.59-.64-1-.18-2,.09a105.27,105.27,0,0,0-26.18,12.2,115.7,115.7,0,0,0-13.8,10.66c-2.6,2.32-5.42,5.1-7.83,7.74-.77.87-1.14.77-.64,1.87a25.48,25.48,0,0,0,1.87,3.87Zm15.8,22.49A22.11,22.11,0,0,0,169,160c.5-.14,3.6-1.91,4.46-2.32.55-.27,1-.55,1.5-.82A131.26,131.26,0,0,1,194,149c4.46-1.41,8.88-2.64,13.8-3.73a136.39,136.39,0,0,1,14.75-2.41,33.19,33.19,0,0,0-.91-5c-1.23.09-6.15,1-7.65,1.32-9.74,2-19.58,4.28-28.73,7.92-5.24,2-11.16,5.05-15.35,8.56a19.57,19.57,0,0,0-2.64,2.5Zm-6.51,52-7.42-5.83c-.09,1.5,1.59,6.42,2.14,7.79,3,7.74,6.33,13.39,10.52,20.45,2.64,4.46,5.46,8.7,8.24,12.89.73,1.14,1.46,2,2.19,3.14a6,6,0,0,0,2.87,2.73c2.46,1.5,6,2.32,8-.46l-2.69-2.64a99.94,99.94,0,0,1-7.38-8c-.68-.91-1.78-2-2.37-2.87l-2.64-3.64c-.18-.27-.41-.46-.59-.73l-2-3a70.83,70.83,0,0,1-8.15-18.26c-.18-.68-.18-1.27-.77-1.68Zm15.76,10a20.8,20.8,0,0,0,2.14,4.55l5.42,7.51a6.12,6.12,0,0,1,.5.64,151.54,151.54,0,0,0,18.62,17.53c1.64,1.37,5,2.5,7.38,3.19a23.19,23.19,0,0,0,8.61.82l-5.6-4.14c-1.91-1.41-3.64-2.82-5.46-4.23-2.73-2.09-8-6.51-10.34-8.83a50.65,50.65,0,0,1-6.6-7.38c-.18-.27-.27-.32-.5-.64-.91-1.18-1.32-3.1-2.09-3.42-.59-.27-1.32-.55-1.87-.77-1.18-.5-2.32-1-3.51-1.55l-6.65-3.23ZM157.47,146a23.12,23.12,0,0,0,2,2.78c.55-.5,1.87-2.46,2.46-3.19.87-1.09,1.73-2,2.64-3.05a65.06,65.06,0,0,1,5.69-5.56c2.46-2.19,3.87-3.05,6.1-4.83.5-.41,1.09-.73,1.64-1.09,8.2-5.87,21.36-11.47,30.69-14.62.73-.23,3.46-1,3.92-1.32-.18-.64-2-3-2.28-3.73-2,.14-13.93,4.6-15.71,5.28a114,114,0,0,0-11,5c-.64.36-1.14.64-1.78,1a81.8,81.8,0,0,0-9.93,6.47c-4,3.32-6.47,5.1-10,9.7-1.32,1.73-3.78,5.15-4.55,7.29Zm6.65,66.62c1,4.78,5.1,12.57,7.74,16.85l2,3.05a100.36,100.36,0,0,0,9.38,11.38c1.73,1.87,3.42,3.51,5.33,5.28,1.41,1.32,4.19,4.19,6,4.83,3.1,1.09,6.78,1.82,7.29-1.87l-5.42-4.55c-3.69-3.14-6.69-6.06-10-9.43-2-2-7.19-8-8.61-10.47-.55-1-1.18-1.87-1.73-2.91-4.14-8.06-.23-4.69-5.78-8.15l-6.24-4ZM161,150.67a23.07,23.07,0,0,0,2.14,2.82l5.15-5.83a69.1,69.1,0,0,1,11-8.88c.32-.18.55-.36.87-.55,9.61-6.15,21.63-10.75,32.88-13.39,1.18-.27,2.91-.77,4.1-.91a39.74,39.74,0,0,0-3.37-6.83c-2.5.5-13.11,4.55-15.3,5.51-5.46,2.37-7,3.23-11.61,5.6l-7.56,4.6c-.59.36-1,.82-1.59,1.18-1.14.73-2,1.5-3.1,2.28-4.46,3.37-10.56,9.56-13.62,14.48ZM146,232.36a21.2,21.2,0,0,0,4.55,6.56c2.37,2.09,4.87,3.19,8.83,3.69-.36-.82-1.55-2.55-2.09-3.46-5.05-8.52-8.92-15.21-12.8-24.73a91.22,91.22,0,0,1-4.92-15.66,49.89,49.89,0,0,1-1-8.79c0-1.18-.27-1.18-.87-1.82l-3.55-4.6c-.82,1.87-.87,7.83-.82,9.93.18,8.15,2.87,17.39,5.83,24.54.55,1.27,1,2.55,1.59,3.78,1.73,3.92,3.42,6.92,5.33,10.61Zm.68-34.2-5.83-6.1a54.25,54.25,0,0,0,1.5,9.11C145,211.91,152,226.57,158,236l3.28,5.28a10.3,10.3,0,0,0,.59.91,8.2,8.2,0,0,0,1.91,2.46,16,16,0,0,0,5.42,3.92,17.42,17.42,0,0,0,4.69,1.23c.41,0,.09,0,.36,0l.23-.09a5.53,5.53,0,0,1-1.23-1.68c-.23-.32-.46-.55-.68-.87l-2.78-4.33c-.23-.36-.41-.55-.64-.91a4.54,4.54,0,0,0-.55-.87l-1.14-1.78c-1.09-2-3.1-4.87-4.37-7.1-4.74-8.38-11.61-19.67-12.25-29.23-.09-1.41,0-1-1-1.87s-2-1.87-3.05-2.91Zm131-73.68,1.23,7.42A128.81,128.81,0,0,1,280,155.68c-.55,14.12-2.64,22.27-5.83,35.7a26.69,26.69,0,0,0,4-1.18c2.41-.77,1.91-.41,2.64-3.23.87-3.42,1.68-6.74,2.5-10.15,2.73-11.75,3.92-27.23,2.14-38.84-.64-4.37-1-8.56-3.69-11.7-1.14-1.32-2-1.64-4.14-1.82Zm-12.75-15.57,1.5,4.37a135.41,135.41,0,0,1,3.92,13.8,122.42,122.42,0,0,1,2.28,42c-1.23,10.06-2.64,14.43-5.33,23.86a25.85,25.85,0,0,0,4.23-.87c7.6-25.82,8.7-53.14.87-78.41-.55-1.78-1-3.14-2.14-4.28a5,5,0,0,0-5.28-.5Zm-112.34,29a39.07,39.07,0,0,0,3.46,5.87,52.63,52.63,0,0,1,13.07-15.3c.5-.41,1.09-.91,1.55-1.23s.46-.32.73-.55c1.18-.91,5.92-4.05,7.47-4.87l3.46-1.91c3.51-1.73,7.24-3.64,10.93-5.05,4-1.5,7.47-2.87,11.61-4.14a40.86,40.86,0,0,0,4-1.27l-3.78-5c-.46-.41-1.55,0-2.19.18a68.5,68.5,0,0,0-8.79,2.6,73.44,73.44,0,0,0-8.11,3.42,83.87,83.87,0,0,0-7.6,4.19c-1.18.91-2.37,1.46-3.55,2.32-.32.23-.5.41-.82.64a106,106,0,0,0-18.53,16.76A32.59,32.59,0,0,0,152.6,138Zm-4.42-9.52c.41-.23,4.42-4.42,5.19-5.15a110.45,110.45,0,0,1,11.16-9.47A104.87,104.87,0,0,1,193.9,98.21c.87-.32,3.05-.91,3.64-1.23l-3.14-2.91c-1.14-1-.68-.87-4.14,0-3,.73-6,1.55-8.74,2.5A80.14,80.14,0,0,0,152,113.92a70.1,70.1,0,0,0-6,6.24c-.46.59,0,1.41.18,2s.41,1.41.64,2.09C147.22,125.67,147.77,127.08,148.18,128.4ZM251.86,101c.36.82.68,1.68,1,2.6,4.78,11.61,9.29,26,11.29,38.25,2.09,13,2.6,26.09-.59,39.39a68.17,68.17,0,0,1-2,6.78l-2.32,6.1a35.31,35.31,0,0,0,5.33-.68c.91-1,3.55-12.16,4-14.3a121.58,121.58,0,0,0-4.28-64.84c-1.23-3.55-3.69-10.11-5.28-13.48a6.81,6.81,0,0,0-5.28-3.28,6.35,6.35,0,0,0-3,.82,14.92,14.92,0,0,0,1,2.69ZM210.79,84.14l2.73,3.1a7.78,7.78,0,0,0,.5.64,65.78,65.78,0,0,1,5.15,6.6l1,1.27c17,24.27,24,50,19.58,80.14a130.27,130.27,0,0,1-2.64,13.21c-.36,1.37-.91,3-1.14,4.28l4.6.59c3.28-9.93,5.46-26.14,5.33-36.52a112.44,112.44,0,0,0-4.42-30.92,108.44,108.44,0,0,0-5.05-13.62c-1.5-3.42-3.05-6.33-4.83-9.52-.32-.55-.59-1-.87-1.5a139.23,139.23,0,0,0-10-14.66c-.5-.68-4.23-5.24-4.69-5.37a4.54,4.54,0,0,0-2.23.14,6.68,6.68,0,0,0-3,2.09ZM242.94,194.2a39.35,39.35,0,0,0,4.55.27c.5,0,.46,0,.68-.55,3.55-9,5.46-20.4,5.74-29.78a121.4,121.4,0,0,0-3.32-30.87C247.54,119.61,242,105.4,236.11,93c-1-2.09-2-4.33-3.14-6.24-.77-1.37-2.87-4.42-4.55-5.33a6.94,6.94,0,0,0-4.19-.09c-1.27.41-2,1.27-2.14,3-.18,1.55.14,1.27,1.55,3.1l7,10c.27.46.59,1,.91,1.5.59,1,1.23,1.91,1.78,3a126.45,126.45,0,0,1,6.19,12.43,109.87,109.87,0,0,1,8.7,43.94c0,12.43-2.14,23.59-5.28,35.88Zm41.76,10.75c-6.42,3.6-13.48,5.15-21.13,5.65-20.86,1.32-34.83,1.68-55.6-4.33a109.05,109.05,0,0,1-24.09-9.61c-10.43-5.65-19.9-11.93-28.23-19.72a103,103,0,0,1-9.24-9.74l-1.64-2.09c-.87-1.18-3.23-4.19-4-5.42-.23-.41-.46-.64-.73-1l-2.73-4.55c-3.23-5.65-7.38-16-7.29-23.5-1.23,0-1.41,1.55-1.5,2.78-.18,3.46.77,5.78,1.78,8.88a58.82,58.82,0,0,0,4.42,10.47c1,1.68,4.64,8,6,9.52l2.46,3.42,8.33,9.65A135.7,135.7,0,0,0,164.25,187c14,11.34,26.68,18.44,44.62,24.5a120.38,120.38,0,0,0,44.49,5.92,120.94,120.94,0,0,0,27.78-5.74,4.64,4.64,0,0,0,2.55-1.23c1-1.14,2.64-4.23,2.23-6-.59,0-.82.23-1.37.55Zm-28-10.66c2.23-4.1,4.28-11.29,5.24-16.07a86.07,86.07,0,0,0,1.64-16.94,125.42,125.42,0,0,0-3.78-29.46c-3-12.52-8.56-27.37-14-38.93-.5-1.09-1-2-1.46-3.1-.91-2-6.47-6.24-9.47-4.23l1.46,2.87c3.37,7,6.33,13.16,9.11,20.63,9.38,25,14.66,51.18,7.38,77.77-.73,2.64-1.68,5.1-2.46,7.7Zm-129-40.62c2.28,6,3.46,7.33,6.1,11.75a75.3,75.3,0,0,0,4.64,6.47l1.68,2.09c11,13.16,23.91,23.91,40.8,33.38A84.83,84.83,0,0,0,191.8,213c15.21,5.87,24,8.61,41.39,10.15a158.8,158.8,0,0,0,27.09.27c2.28-.18,15-1.27,17.67-3.37a7.54,7.54,0,0,0,2.73-5.19c-7.47,2.09-14.53,4.37-23.27,4.78l-13.34.18c-16.48-.14-33.51-4.92-48.45-10.61-2.91-1.09-13.25-7.06-15.89-8.61a133.89,133.89,0,0,1-30.87-24.22c-2.19-2.28-3.32-3.82-5.19-6-.59-.68-1.09-1.41-1.64-2.09l-6-8.79a102.87,102.87,0,0,1-7-14.21c-.64-1.59-1.46-4.6-1.68-5.19s-1.82-1.5-2.37-.27c-.91,2,.14,7.74.77,8.79a33.76,33.76,0,0,1,2,5Zm6.15-30.33c-1.87,3.1-1.09,6.28-.36,9.61,2.23,10.43,7.24,20,12.57,29.05a22.58,22.58,0,0,0,3.32,4.51c.32.36.68.77,1,1.14,3.46,4.14,9.61,9.52,13.84,13a123.58,123.58,0,0,0,20.81,13.48,133.18,133.18,0,0,0,26.18,10.11,144.79,144.79,0,0,0,31.1,4.74,112.91,112.91,0,0,0,39.25-5.51,46.58,46.58,0,0,0,5.74-2c1.73-1.09,2.32-3.78,1.91-5.87-.5.14-.77.36-1.37.55-1.59.5-2.37,1-3.92,1.64a54.76,54.76,0,0,1-17.3,4.14c-2.23.18-4.05.55-6.24.87a119,119,0,0,1-72.95-13c-10.52-5.65-19.08-12.89-27.09-20.76-2.64-2.6-5-5.37-7.29-8.06a105.2,105.2,0,0,1-6.28-8.7,91.18,91.18,0,0,1-5.19-9.38,52.58,52.58,0,0,1-5.65-21.72,6.92,6.92,0,0,0-2,2.14Zm42.58,85.15c-23.18-12.89-42.53-31.87-51.64-55.28-.5-1.32-.87-3-1.55-3.51a1.62,1.62,0,0,0-1.27-.5c-1,2.28,1.37,9.33,2,11.2a91.19,91.19,0,0,0,10,18.72,110.3,110.3,0,0,0,9.84,12.52,124.31,124.31,0,0,0,53.46,34.7,113.14,113.14,0,0,0,28.73,5.6,254.65,254.65,0,0,0,27,.14c4.37-.14,8.7-.36,13.11-.55a8.38,8.38,0,0,0,3.1-.41c3-1.23,5-4.37,3.73-7a21.78,21.78,0,0,0-2.73.68,95.94,95.94,0,0,1-19.81,3c-15.76.5-25.41-2-39.93-6.06-13.39-3.73-21.81-6.51-34.11-13.34ZM191,189.05a78.6,78.6,0,0,0,11.84,5.46,116.27,116.27,0,0,0,56.92,6c1-.14,2.14-.41,3.19-.46a18,18,0,0,0,3.23-.36c2-.36,4-.77,6.06-1.27,4-1,7.83-2,11.57-3.23a24.45,24.45,0,0,0,5.19-2.41c1-.68,3-4,2.55-5.56-.64-.18-.91.14-1.37.36l-3.69,1.78c-1.64.77-3.37,1.41-5.1,2.09a79.64,79.64,0,0,1-11,3.19c-26,5.78-55.55-1.32-77.09-13.48a129.55,129.55,0,0,1-18.76-12.93,104,104,0,0,1-18.17-19.67l-4.28-6.6a82.46,82.46,0,0,1-9.7-25,18.26,18.26,0,0,0-.59-2.69c-2.55-.5-3.28,2.41-3.51,4.23.5.36.46-.18.68,1.18l.82,4.37a93.3,93.3,0,0,0,15.89,35.52C165.07,172.3,176.41,181,191.07,189Z" transform="translate(-7.89 -2.89)"/><path d="M219.94,233.91c1.32.14,2.73.32,4,.36,1.5.09,1,.14,2.73,1.78a34.55,34.55,0,0,0,5.05,3.92,59.15,59.15,0,0,0,12.93,5.92c.23,1.09,0,2.91-2.19,2.5a15.69,15.69,0,0,1-3.78-1.68c-2.46-1.32-4.51-2.5-6.74-3.92C231.28,242.33,220.58,235,219.94,233.91Zm-16.07-3.1c2.82.55,5.6,1.41,9.15,2l1.59.27c.77.14.64.09,1.14.55,2.23,2,4.87,4,7.33,5.83,4.46,3.28,11.43,8.15,16.57,10.34-.41,2.28-1.68,3.64-3.87,3.55-2.73-.09-4.19-1.18-6-2.37a218,218,0,0,1-18.21-12.89c-1.78-1.46-7.06-5.92-7.83-7.29Zm25,3.82,7.19.23c1.91,0,1.55-.18,3.14.73,4.28,2.5,10.43,5.74,15.53,6.69-2.14,6.28-16.62-1.14-20.72-3.55a33.7,33.7,0,0,1-2.82-1.87L229,235c-.27-.41,0,.46-.09-.23a.46.46,0,0,1,0-.14Zm-36.47-7.38c2.14.59,4.28,1.5,6.47,2.19,1.59.5.91.32,2.14,1.78,8.74,10.29,28.6,22.13,29,22.68-1.32,2-3.14,2.37-5.87,1-2.5-1.27-12.7-9.2-14.94-11-3.19-2.55-6.42-5.19-9.15-7.83-1.87-1.78-7.19-7.1-7.65-8.83Zm50,7.56,13.3-.46c1.46,0,3-.23,4.37-.18.64,1.18.5,4.33-.73,5.28-3.73,2.91-13.84-3.32-17-4.69ZM176.68,220.2l6.65,3.23c1.18.55,2.32,1,3.51,1.55.59.23,1.27.5,1.87.77.77.36,1.23,2.23,2.09,3.42.23.32.32.36.5.64a50.65,50.65,0,0,0,6.6,7.38c2.37,2.32,7.56,6.74,10.34,8.83,1.82,1.37,3.55,2.82,5.46,4.23l5.6,4.14a22.28,22.28,0,0,1-8.61-.82c-2.41-.68-5.69-1.82-7.38-3.19a151.54,151.54,0,0,1-18.62-17.53,6.12,6.12,0,0,1-.5-.64l-5.42-7.51a20.8,20.8,0,0,1-2.14-4.55Zm-12.43-7.51,6.24,4c5.56,3.46,1.64.09,5.78,8.15.55,1,1.18,2,1.73,2.91,1.41,2.46,6.65,8.47,8.61,10.47,3.32,3.37,6.33,6.28,10,9.43l5.42,4.55c-.5,3.69-4.19,3-7.29,1.87-1.82-.64-4.6-3.51-6-4.83-1.91-1.78-3.6-3.42-5.33-5.28A105.47,105.47,0,0,1,174,232.54l-2-3.05c-2.69-4.28-6.74-12.07-7.74-16.85Zm-10.75-8.29,7.42,5.83c.59.46.59,1,.77,1.68a71,71,0,0,0,8.15,18.26l2,3a8.31,8.31,0,0,0,.59.73l2.64,3.64c.59.87,1.64,2,2.37,2.87,1.55,2,5.51,6.15,7.38,8l2.69,2.64c-2,2.78-5.51,2-8,.46a6.44,6.44,0,0,1-2.87-2.73c-.73-1.14-1.46-2-2.19-3.14-2.78-4.19-5.6-8.42-8.24-12.89-4.19-7.06-7.47-12.75-10.52-20.45-.55-1.37-2.23-6.28-2.14-7.79Zm-12.43-12.25,5.83,6.1c1,1,2,1.91,3.05,2.91s.87.5,1,1.87c.64,9.56,7.56,20.86,12.25,29.23,1.27,2.23,3.28,5.15,4.37,7.1l1.14,1.78a4.54,4.54,0,0,1,.55.87c.23.36.41.55.64.91l2.78,4.33c.23.32.46.55.68.87.32.5.68,1.37,1.23,1.68l-.23.09c-.27,0,0,0-.36,0a15.89,15.89,0,0,1-4.69-1.23,16.42,16.42,0,0,1-5.42-3.92,8.8,8.8,0,0,1-1.91-2.46c-.27-.41-.36-.55-.59-.91l-3.28-5.28c-6-9.43-12.93-24.09-15.57-34.83a54.25,54.25,0,0,1-1.5-9.11Zm-6.83-8.56,3.55,4.6c.59.68.87.68.87,1.82a49.89,49.89,0,0,0,1,8.79,87.4,87.4,0,0,0,4.92,15.66c3.87,9.56,7.79,16.26,12.8,24.73.55.91,1.73,2.64,2.09,3.46a15.24,15.24,0,0,1-8.83-3.69,22.87,22.87,0,0,1-4.55-6.56c-2-3.69-3.6-6.69-5.33-10.61-.55-1.23-1.09-2.5-1.59-3.78-3-7.15-5.6-16.44-5.83-24.54,0-2.09,0-8.06.82-9.93Zm-5.65-8.47,1.87,2.91c2.78,4.6,2,1.18,1.14,7.56-1.55,11.38,1.46,23.31,5.74,33.56,1.64,4,3.23,7.33,5.19,11.16a13.76,13.76,0,0,1,.82,1.64c-7.6-3.19-11.38-17.67-12.89-24.82-.23-1.09-.41-2.64-.73-3.64-2-6.37-2.28-12.7-2-19.44.09-2,.32-7.19.87-8.92Zm-5.24-10.29,2.87,5.83c.68,1.23.32,1.68,0,3.78a107.23,107.23,0,0,0-1,16.21,36.22,36.22,0,0,1,.14,3.82C124,192.2,122,184,121.59,181c-.64-4.6-.64-11.61,1.73-16.21ZM171,161.78a18.57,18.57,0,0,1,2.78-1.64c.82-.41,2.19-1.23,3-1.5l2.14,3.87c2,3.6,3.55,6.06,5.69,9.43a11,11,0,0,1,1.23,1.87c-2.41-1.09-13.8-10.52-14.8-12Zm-48.86-12.39a1.37,1.37,0,0,1,1.27.5c.64.5,1,2.19,1.55,3.51,9.11,23.41,28.51,42.39,51.64,55.28,12.29,6.83,20.67,9.61,34.11,13.34,14.53,4.05,24.18,6.51,39.93,6.06a90.17,90.17,0,0,0,19.81-3,21.78,21.78,0,0,1,2.73-.68c1.23,2.55-.73,5.74-3.73,7a8.24,8.24,0,0,1-3.1.41c-4.42.18-8.74.41-13.11.55a254.71,254.71,0,0,1-27-.14,113.14,113.14,0,0,1-28.73-5.6,124.31,124.31,0,0,1-53.46-34.7,115.68,115.68,0,0,1-9.84-12.52,89,89,0,0,1-10-18.72c-.73-1.87-3.1-8.92-2-11.2Zm56.92,8.06a26.38,26.38,0,0,1,4.23-1.82c1,1.23,1.87,2.55,2.78,3.78s1.82,2.5,2.78,3.78l4.23,5.65c4.37,5.56,7.24,9.2,12.07,14.57a14.25,14.25,0,0,1,1.59,1.82c-2-.73-13.16-6-14.71-7.51a12.25,12.25,0,0,1-1.5-1.87c-.5-.68-1-1.27-1.5-2a100.05,100.05,0,0,1-7.65-12.07,33.12,33.12,0,0,1-2.23-4.37Zm6.6-2.82a20.49,20.49,0,0,1,4-1.55c1.41,3,4.19,6.15,6,8.83a84.87,84.87,0,0,0,7.15,8.24,97.41,97.41,0,0,0,12.89,11,38.59,38.59,0,0,0,5,3.23,38.46,38.46,0,0,1-1.37,5.37c-1.46-.23-6-1.73-7-2.6-1.64-1.41-3-2.78-4.37-4.23-6.19-6.42-15.21-18.21-20.54-25.77A11.22,11.22,0,0,1,185.7,154.63ZM280.91,215a7.28,7.28,0,0,1-2.73,5.19c-2.64,2-15.39,3.19-17.67,3.37a158.8,158.8,0,0,1-27.09-.27C216.12,221.7,207.28,219,192,213.1a87.91,87.91,0,0,1-10.93-5.6c-16.85-9.52-29.78-20.26-40.8-33.38L138.62,172a75.3,75.3,0,0,1-4.64-6.47c-2.64-4.42-3.82-5.83-6.1-11.75a47.78,47.78,0,0,0-2-5c-.64-1-1.68-6.83-.77-8.79.55-1.23,2.14-.32,2.37.27s1,3.64,1.68,5.19a102.87,102.87,0,0,0,7,14.21l6,8.79c.55.68,1,1.41,1.64,2.09,1.91,2.19,3,3.73,5.19,6a133.89,133.89,0,0,0,30.87,24.22c2.64,1.55,13,7.51,15.89,8.61,15,5.69,32,10.47,48.45,10.61l13.34-.18c8.74-.46,15.8-2.69,23.27-4.78ZM192,152.22c1-.64,4.42-1.41,5.74-2a15.25,15.25,0,0,1,1.18,1.91l3.69,5.69a67,67,0,0,0,5.69,7.1c2.87,3.14,9.84,10.25,13.66,12.75l-.82,4.14a43.33,43.33,0,0,1-4.64-3.1,90.3,90.3,0,0,1-18.85-18.12c-1-1.32-5.24-7.19-5.69-8.42Zm14.3-4.19,3.6,5.51c1,1.46,2.87,3.78,3.92,5.19a57,57,0,0,0,4.46,5,60.1,60.1,0,0,0,5,4.46,53,53,0,0,1-.91,6.78,32,32,0,0,1-3.42-2.82,91.58,91.58,0,0,1-14.25-15.53c-.73-1-4.28-6.1-4.42-7.1l6-1.5Zm8.2-1.68c.59.64,2.14,5.28,6.19,9.06,3.37,3.1,3.14,1.41,3.1,4.23,0,.64,0,1.23,0,1.91a24.84,24.84,0,0,1-.27,3.73c-2.32-1.5-6.28-6.19-8.11-8.38-1.18-1.41-2.41-3.1-3.46-4.64-.55-.82-2.87-4.1-3-4.83l5.6-1Zm-84.1-15.71c-.14,7.51,4.05,17.85,7.29,23.5l2.73,4.55c.27.41.46.64.73,1,.68,1.18,3.1,4.23,4,5.42l1.64,2.09A103,103,0,0,0,156,177a134.85,134.85,0,0,0,28.23,19.72,106.88,106.88,0,0,0,24.09,9.61c20.76,6,34.74,5.65,55.6,4.33,7.6-.5,14.71-2,21.13-5.65.5-.27.73-.55,1.37-.55.41,1.78-1.18,4.83-2.23,6-.77.87-1.37.87-2.55,1.23a120.94,120.94,0,0,1-27.78,5.74,119.19,119.19,0,0,1-44.49-5.92c-17.94-6.06-30.65-13.16-44.62-24.5A129.82,129.82,0,0,1,152,175.21l-8.33-9.65-2.46-3.42a110.93,110.93,0,0,1-6-9.52,57.43,57.43,0,0,1-4.42-10.47c-1-3.1-2-5.42-1.78-8.88,0-1.27.27-2.73,1.5-2.78ZM217,145.84a56.5,56.5,0,0,1,6.06-.77c.41,1,.91,8.47.82,10-2.37-1.41-6.33-6.92-6.88-9.24Zm-49.5,12.39a15.34,15.34,0,0,1,2.64-2.5c4.19-3.51,10.15-6.47,15.35-8.56,9.15-3.64,19-6,28.73-7.92,1.5-.32,6.37-1.23,7.65-1.32.18,1.27,1,3.78.91,5A136.39,136.39,0,0,0,208,145.34c-4.87,1.09-9.33,2.32-13.8,3.73a126.34,126.34,0,0,0-19,7.83c-.55.27-1,.5-1.5.82-.87.41-4,2.23-4.46,2.32a11.22,11.22,0,0,1-1.73-1.87ZM136,121.39c.14,8,2.73,15.66,5.65,21.72a90.28,90.28,0,0,0,5.19,9.38,105.2,105.2,0,0,0,6.28,8.7c2.28,2.64,4.64,5.42,7.29,8.06,8,7.88,16.57,15.12,27.09,20.76a119.39,119.39,0,0,0,72.95,13c2.19-.32,4-.64,6.24-.87A56,56,0,0,0,284,198c1.55-.59,2.32-1.14,3.92-1.64.59-.18.87-.41,1.37-.55.46,2-.18,4.78-1.91,5.87a55.62,55.62,0,0,1-5.74,2,114,114,0,0,1-39.25,5.51,144.36,144.36,0,0,1-31.1-4.74,132.08,132.08,0,0,1-26.18-10.11,126.47,126.47,0,0,1-20.81-13.48c-4.23-3.46-10.43-8.83-13.84-13-.27-.36-.64-.77-1-1.14a24,24,0,0,1-3.32-4.51c-5.33-9.06-10.34-18.62-12.57-29.05-.73-3.37-1.46-6.51.36-9.61a6.92,6.92,0,0,1,2-2.14Zm47.68,24.18a33.58,33.58,0,0,1,4.1-2.55l4.14-2.28a113.43,113.43,0,0,1,23.13-8.61,35.75,35.75,0,0,1,5-1.14l1.27,4.74a35,35,0,0,1-5,1c-8.92,1.64-19.85,4.14-28.23,7.19l-4.42,1.64Zm99.54,43c.18-1.37,1-3.64,1.32-5.15.46-1.82.87-3.64,1.27-5.46.82-3.69,1.46-7.42,2-11.16A126.5,126.5,0,0,0,289,151.4c0-1.41-.18-3.46,0-4.74,2.09,1.55,3.69,5.92,4.19,9.29a46.58,46.58,0,0,1,0,12.07A70.33,70.33,0,0,1,289.2,184c-1,2.64-.32,2.23-3.6,3.64-.73.32-1.68.64-2.32,1ZM138.57,118.7c.23-1.82,1-4.74,3.51-4.23a18.26,18.26,0,0,1,.59,2.69,84.89,84.89,0,0,0,9.7,25l4.28,6.6a106.91,106.91,0,0,0,18.17,19.67,126,126,0,0,0,18.76,12.93c21.54,12.16,51.09,19.26,77.09,13.48a79.64,79.64,0,0,0,11-3.19c1.73-.68,3.46-1.32,5.1-2.09l3.69-1.78c.46-.23.73-.55,1.37-.36.36,1.55-1.64,4.87-2.55,5.56a25.53,25.53,0,0,1-5.19,2.41,116.72,116.72,0,0,1-11.57,3.23c-2,.5-4,.91-6.06,1.27a23.37,23.37,0,0,1-3.23.36c-1,0-2.19.32-3.19.46a116.27,116.27,0,0,1-56.92-6,76.27,76.27,0,0,1-11.84-5.46c-14.66-8.06-26-16.71-35.38-29.46A93.3,93.3,0,0,1,140,124.3l-.82-4.37c-.18-1.37-.18-.82-.68-1.18Zm26.32,36.84c1-2.46,8.15-9.15,10.61-11.11a74.12,74.12,0,0,1,9.43-6.33l3.32-1.82c6-3.23,15.39-6.56,21.95-8.29,1.78-.46,6.37-1.73,8-2l1,3c-2.37.14-13.11,3.51-15.25,4.28-7.38,2.64-17.39,7.19-23.59,11.79l-4.46,3.28c-1.23.91-3.23,2.82-4.28,3.51l-5.74,4.69a11.36,11.36,0,0,1-1-1Zm-3.69-4.69c3.05-4.92,9.15-11.11,13.62-14.48,1-.77,2-1.55,3.1-2.28.55-.36,1-.82,1.59-1.18l7.56-4.6c4.6-2.37,6.15-3.23,11.61-5.6,2.19-1,12.8-5,15.3-5.51a41.46,41.46,0,0,1,3.37,6.83c-1.18.14-2.87.64-4.1.91-11.2,2.64-23.22,7.24-32.88,13.39a9.07,9.07,0,0,1-.87.55,67.13,67.13,0,0,0-11,8.88l-5.15,5.83a23.07,23.07,0,0,1-2.14-2.82Zm-3.51-4.69c.77-2.14,3.23-5.56,4.55-7.29,3.51-4.6,6-6.37,10-9.7a81.8,81.8,0,0,1,9.93-6.47c.59-.27,1.14-.59,1.78-1a119.25,119.25,0,0,1,11-5c1.78-.68,13.75-5.19,15.71-5.28.32.73,2.09,3.14,2.28,3.73-.46.27-3.19,1.09-3.92,1.32-9.33,3.14-22.49,8.74-30.69,14.62-.55.36-1.14.68-1.64,1.09-2.23,1.78-3.64,2.64-6.1,4.83a65.06,65.06,0,0,0-5.69,5.56c-.91,1-1.78,2-2.64,3.05a32.35,32.35,0,0,1-2.46,3.19,29.36,29.36,0,0,1-2-2.78Zm116.75,45.4c3.19-13.43,5.28-21.63,5.83-35.7a125,125,0,0,0-1.14-23.77l-1.23-7.42c2.19.18,3,.5,4.14,1.82,2.73,3.14,3,7.33,3.69,11.7,1.73,11.61.59,27-2.14,38.84-.77,3.42-1.59,6.74-2.5,10.15-.73,2.78-.27,2.41-2.64,3.23a31.06,31.06,0,0,1-4,1.18Zm-121.63-53.5a32.59,32.59,0,0,1,2.87-3.42,106.19,106.19,0,0,1,18.53-16.76c.32-.23.5-.41.82-.64,1.18-.87,2.37-1.41,3.55-2.32s6.06-3.42,7.6-4.19a73.44,73.44,0,0,1,8.11-3.42,79.49,79.49,0,0,1,8.79-2.6c.64-.14,1.73-.55,2.19-.18l3.78,5a40.86,40.86,0,0,1-4,1.27c-4.14,1.27-7.65,2.64-11.61,4.14A119.69,119.69,0,0,0,182.56,120l-3.46,1.91c-1.55.82-6.28,4-7.47,4.87-.32.23-.36.32-.73.55s-1,.82-1.55,1.23a50.82,50.82,0,0,0-13.07,15.3,43.34,43.34,0,0,1-3.46-5.87Zm-1.14-2.28a30.47,30.47,0,0,1-1.87-3.87c-.5-1.09-.14-1,.64-1.87,2.41-2.64,5.24-5.42,7.83-7.74a119.48,119.48,0,0,1,13.8-10.66,105.27,105.27,0,0,1,26.18-12.2c1-.27,1.41-.68,2-.09a26.44,26.44,0,0,1,2.91,3.19,77.14,77.14,0,0,0-15.39,5.05c-14.39,6.47-26.36,16.44-36.16,28.23ZM265.2,109a4.87,4.87,0,0,1,5.28.5c1.23,1.14,1.64,2.55,2.14,4.28,7.83,25.27,6.74,52.59-.87,78.41a25.85,25.85,0,0,1-4.23.87c2.69-9.43,4.1-13.84,5.33-23.86a120.2,120.2,0,0,0-2.28-42c-1-4.14-2.5-9.74-3.92-13.8l-1.5-4.37ZM148.45,128.49c-.41-1.32-1-2.69-1.41-4.1-.23-.68-.41-1.37-.64-2.09s-.64-1.46-.18-2a70.1,70.1,0,0,1,6-6.24,80.88,80.88,0,0,1,29.55-17.39c2.78-1,5.74-1.78,8.74-2.5,3.51-.82,3-1,4.14,0l3.14,2.91a28.35,28.35,0,0,1-3.64,1.23,104.25,104.25,0,0,0-29.37,15.57,116.69,116.69,0,0,0-11.16,9.47C152.87,124.07,148.86,128.26,148.45,128.49Zm-3.23-10.88c-1-4.28-1.14-3.37,1.5-7,4.55-6.19,10-10.34,16.48-14,7.51-4.28,14.8-6.06,23.31-7.88,1.09-.23,1-.32,1.87.36a32,32,0,0,0,3,2.23l-.5.27c-.09,0-.27,0-.41.09l-2.64.64c-1.14.27-2.28.59-3.37.91-2.23.68-4.42,1.37-6.51,2.19-3.69,1.46-11.84,5.1-15.07,7.38-1,.68-1.78,1.09-2.78,1.78a87.57,87.57,0,0,0-10.2,8.24l-4.69,4.74ZM251.13,98.44a6,6,0,0,1,3-.82,6.73,6.73,0,0,1,5.28,3.28c1.59,3.37,4.05,9.93,5.28,13.48a121.55,121.55,0,0,1,4.28,64.84c-.46,2.14-3.1,13.3-4,14.3a30.3,30.3,0,0,1-5.33.68l2.32-6.1a68.17,68.17,0,0,0,2-6.78c3.19-13.3,2.69-26.36.59-39.39-2-12.29-6.51-26.68-11.29-38.25-.36-.91-.73-1.73-1-2.6a19.3,19.3,0,0,1-1-2.69ZM200.77,84.23a4.11,4.11,0,0,1,5-2.32c1,.32,5.51,5.74,6.24,6.65.18.23.36.36.59.64l1.18,1.41c2.37,3,4.92,6.33,7,9.47.18.27.32.36.5.64s.27.5.46.77l2.87,4.6a104.67,104.67,0,0,1,9.15,19.81c7.06,19.94,7.24,43.62.41,67.26-1.46.18-10.29-2.09-12.2-2.6a39.14,39.14,0,0,1,1-4.19c.73-3.05,1.91-10.25,2.32-13.3a117.24,117.24,0,0,0,1-16.35c-.18-14.8-3.78-30.69-11.79-43.26-.64-1-1.09-1.87-1.78-2.78l-2.82-4.05c-.36-.46-.68-.82-1-1.27-3.82-4.46-4-5-9.06-9.84a103.66,103.66,0,0,0-10-8.24c-.36-.27-.46-.27-.59-.59a3.21,3.21,0,0,1,2-3.19,11.85,11.85,0,0,1,4.05-.82c1.68.09,9.47,8.7,10.79,10.2l2.32,2.87c5.92,7.06,12.16,19,16,28.55a142.77,142.77,0,0,1,4.87,14.07c3.69,14,.23,39-2.19,53.23l2.14.32c.5-1.09,1.18-7.1,1.41-8.74.41-2.82.77-5.69,1.09-8.52,1.14-10.06,2-22,.68-31.92-1-7.1-5.74-19.31-8.74-25.82-1-2-1.91-4-2.91-6-2.46-4.78-4.14-7.15-6.78-11.43l-4-5.37a93.22,93.22,0,0,0-7.88-8.65,15.65,15.65,0,0,1-1.23-1.23Zm10.29,0a6.68,6.68,0,0,1,3-2.09A5.16,5.16,0,0,1,216.3,82c.46.14,4.14,4.74,4.69,5.37A139.23,139.23,0,0,1,231,102c.27.55.55,1,.87,1.5,1.78,3.19,3.32,6.1,4.83,9.52a101.76,101.76,0,0,1,5.05,13.62,110.49,110.49,0,0,1,4.42,30.92c.09,10.38-2,26.59-5.33,36.52l-4.6-.59c.23-1.32.77-3,1.14-4.28A130.27,130.27,0,0,0,240,176c4.42-30.24-2.6-55.87-19.58-80.14l-1-1.27a65.78,65.78,0,0,0-5.15-6.6c-.23-.27-.27-.36-.5-.64L211,84.28Zm32.15,110.06c3.14-12.29,5.24-23.41,5.28-35.88a109.87,109.87,0,0,0-8.7-43.94A137.44,137.44,0,0,0,233.6,102c-.55-1.09-1.23-2-1.78-3a16.47,16.47,0,0,0-.91-1.5l-7-10c-1.41-1.82-1.78-1.55-1.55-3.1.23-1.73.87-2.6,2.14-3a7.3,7.3,0,0,1,4.19.09c1.68.91,3.78,4,4.55,5.33,1.09,1.91,2.14,4.14,3.14,6.24,5.87,12.34,11.43,26.59,14.48,40.25a125.65,125.65,0,0,1,3.32,30.87c-.27,9.38-2.19,20.81-5.74,29.78-.23.55-.14.5-.68.55a39.35,39.35,0,0,1-4.55-.27Zm-8-108.65c3-2,8.56,2.19,9.47,4.23.46,1,1,2,1.46,3.1,5.42,11.57,11,26.41,14,38.93a123.07,123.07,0,0,1,3.78,29.46,89.31,89.31,0,0,1-1.64,16.94c-1,4.78-3,12-5.24,16.07l-6.33.23c.77-2.6,1.73-5.05,2.46-7.7,7.29-26.59,2-52.73-7.38-77.77-2.78-7.42-5.74-13.62-9.11-20.63Zm-14.89-3c-.87-.41-1.78-2.64-3-2.82l-.82-.14a8,8,0,0,0-6.83,2.55c-1.68-1.55-1.64-2.37-4.28-2.82-3-.5-4.78,1.14-6.37,3-.77-.68-2-2-3.14-2.14-2.37-.27-6.06.73-7.6,2.23-.64.64-2,2.46-1.59,3.82l-3.37.68a55.36,55.36,0,0,0-6.69,1.68c-1.09.36-2.14.59-3.23,1a65,65,0,0,0-6.1,2.32,62.09,62.09,0,0,0-5.78,2.87l-1.32.73a24.53,24.53,0,0,0-2.73,1.68c-1.23,1-2.64,1.82-3.82,2.82a50.68,50.68,0,0,0-6.92,6.69c-.68.87-1.46,1.73-2,2.6-.36.5-.64.87-1,1.37s-.64,1-1,1.37a4.36,4.36,0,0,0-4.6,1.46c-1.18,1.41-1.46,2.82-1.91,5.15-2.32.18-4.83,4.23-5.24,6.33L130.6,127c-.14.68,0,.77-.14,1.41-2.14-.32-3.32,2.09-3.64,3.78s0,3.42.09,5.05c-5.51-1-4.64,7.1-3.87,9.79-5-.87-3.42,6.92-2.82,9L122,162c-.09.55-1.91,4.1-2.6,7.7a35.53,35.53,0,0,0,0,12.43,56.85,56.85,0,0,0,3.78,13c1,2.46,2.14,4.87,3.32,7.24a6.87,6.87,0,0,1,1,2.41l.55,2.82c1.18,5.56,3.1,13,6,17.8a25.25,25.25,0,0,0,4.78,6.28,13.62,13.62,0,0,0,5,3c2,.59,1.32.5,2.69,2.82,2,3.55,6.47,6.37,10.88,7.15l2.14.36c.73.09,1.59-.09,2.09.5a18,18,0,0,0,12.89,6.69c2,.18,1.41-.27,3.19.91,3.55,2.37,8.56,3.32,11.57-.27,2,.82,1.91,3.19,8,4.23,3,.5,6.56-.27,7.15-3.42.64.14,3.14,1.27,4,1.55a25.85,25.85,0,0,0,12.84,1.23c.77-.18.73-.18,1.32.18,2.78,1.64,6.51,2.14,8.88-.36.46-.5.68-.91,1.09-1.41a10,10,0,0,0,5.15.5c3.05-.68,3.55-2.64,4.51-4.64,3.28.55,4.78-1.14,5.33-4,2.64.46,4.78.73,7.1-.5a6.75,6.75,0,0,0,3-3.69,5.74,5.74,0,0,0,4.74-2.46,6.82,6.82,0,0,0,.87-4.42,6.14,6.14,0,0,1-.09-1.59,42.07,42.07,0,0,0,6.33-.27,9.27,9.27,0,0,0,5.74-4.23c2-3.23.59-5.28.68-6.19A6.29,6.29,0,0,0,277,223a8.58,8.58,0,0,0,3.37-1.78,10.55,10.55,0,0,0,2.87-5.87c.18-1-.14-1.23-.18-2,2.19-.09,4.92-4.1,5.46-6.65a6,6,0,0,0,0-3.23c2.69-1.09,3.69-5.37,3.23-8-.18-1-.73-1.23,0-2a10.5,10.5,0,0,0,2.55-5.24c.41-2.09-1-3.32-3-3.23a26.61,26.61,0,0,1,.91-2.69c.32-1,.55-1.87.91-2.87a58.49,58.49,0,0,0,2.69-14.75c.46-7,0-15.57-6-20.45-.5-.41-.91-.55-1-1.23a64.37,64.37,0,0,0-2.14-13.57c-.82-2.64-3.23-6.51-6.56-7.1a7.23,7.23,0,0,0-2.6-.18c-.59-1.82-.91-3.82-1.46-5.69s-1-3.78-1.73-5.56c-1.55-4.1-4.92-6.37-10-4.33a71.45,71.45,0,0,0-2.78-6.69c-1.55-3.32-6.51-5.74-10.34-4.14a6.55,6.55,0,0,1-1.09.41,59.93,59.93,0,0,0-3.1-6.83,8.56,8.56,0,0,0-3.64-4.1,12,12,0,0,0-5.69-2.46,6.52,6.52,0,0,0-3.87.77,12.19,12.19,0,0,0-2.09-2.6,7.05,7.05,0,0,0-3.37-2c-3.23-.55-7.51.32-8.15,3.64Z" transform="translate(-7.89 -2.89)"/></svg>